<?xml version="1.0" encoding="UTF-8" standalone="no"?>
<!-- Created with Inkscape (http://www.inkscape.org/) -->

<svg
   xmlns:dc="http://purl.org/dc/elements/1.1/"
   xmlns:cc="http://creativecommons.org/ns#"
   xmlns:rdf="http://www.w3.org/1999/02/22-rdf-syntax-ns#"
   xmlns:svg="http://www.w3.org/2000/svg"
   xmlns="http://www.w3.org/2000/svg"
   xmlns:sodipodi="http://sodipodi.sourceforge.net/DTD/sodipodi-0.dtd"
   xmlns:inkscape="http://www.inkscape.org/namespaces/inkscape"
   width="303.42001"
   height="303.54999"
   id="svg2"
   version="1.1"
   inkscape:version="0.48.4 r9939"
   sodipodi:docname="Nouveau document 1">
  <defs
     id="defs4" />
  <sodipodi:namedview
     id="base"
     pagecolor="#ffffff"
     bordercolor="#666666"
     borderopacity="1.0"
     inkscape:pageopacity="0.0"
     inkscape:pageshadow="2"
     inkscape:zoom="0.35"
     inkscape:cx="375"
     inkscape:cy="520"
     inkscape:document-units="px"
     inkscape:current-layer="layer1"
     showgrid="false"
     inkscape:window-width="970"
     inkscape:window-height="642"
     inkscape:window-x="302"
     inkscape:window-y="101"
     inkscape:window-maximized="0" />
  <metadata
     id="metadata7">
    <rdf:RDF>
      <cc:Work
         rdf:about="">
        <dc:format>image/svg+xml</dc:format>
        <dc:type
           rdf:resource="http://purl.org/dc/dcmitype/StillImage" />
        <dc:title></dc:title>
      </cc:Work>
    </rdf:RDF>
  </metadata>
  <g
     inkscape:label="Calque 1"
     inkscape:groupmode="layer"
     id="layer1"
     transform="translate(0,-748.81218)">
    <g
       id="g2996"
       transform="translate(-179.65386,491.07724)">
      <path
         style="fill:#d0d0d0"
         d="m 315.78052,560.48049 c -17.94541,-1.89042 -35.56961,-7.06323 -51.85195,-15.21888 -29.8533,-14.95321 -55.51721,-40.94469 -69.51018,-70.3974 -19.6391,-41.33685 -19.6391,-89.38149 0,-130.71834 10.40675,-21.90435 30.89218,-45.94389 50.51018,-59.27342 29.83473,-20.27132 65.27503,-29.77326 98.81225,-26.49268 20.98358,2.05259 34.43834,5.68433 52.36123,14.13344 44.8508,21.14334 76.17826,62.28781 84.89004,111.49183 2.3936,13.51904 2.3936,37.48096 0,51 -5.10527,28.83451 -20.37313,59.19564 -39.89423,79.33229 -32.77641,33.80994 -79.40627,50.97954 -125.31734,46.14316 z m 25.76156,-100.97424 c 8.47853,-1.57213 19.01171,-7.28643 25.62929,-13.90401 20.08219,-20.08219 20.19079,-52.13763 0.24421,-72.08421 -27.99954,-27.99953 -75.45973,-14.84902 -85.49792,23.6902 -4.34962,16.69933 0.91145,35.71244 13.30297,48.07588 12.36023,12.33223 28.9854,17.43668 46.32145,14.22214 z m -12.72497,-48.43107 c -0.99567,-2.59467 0.39988,-4.73919 2.85699,-4.39028 1.65273,0.23469 2.25447,0.98741 2.25447,2.82014 0,1.83273 -0.60174,2.58545 -2.25447,2.82014 -1.35228,0.19202 -2.49559,-0.3082 -2.85699,-1.25 z"
         id="path3010"
         inkscape:connector-curvature="0" />
      <path
         style="fill:#ababab"
         d="m 315.78052,560.48049 c -24.93949,-2.62719 -49.25175,-11.66652 -70.85195,-26.34286 -11.84018,-8.04486 -30.33723,-26.55096 -38.31168,-38.33043 -7.87262,-11.62907 -15.31957,-26.46334 -19.11422,-38.07539 -15.05444,-46.06839 -8.22327,-94.1473 19.11422,-134.52893 7.97445,-11.77947 26.4715,-30.28557 38.31168,-38.33043 29.83473,-20.27132 65.27503,-29.77326 98.81225,-26.49268 20.98358,2.05259 34.43834,5.68433 52.36123,14.13344 25.96723,12.24134 47.2845,30.80943 62.55986,54.49183 43.73187,67.80041 27.28927,156.44122 -38.04065,205.07417 -9.64237,7.17798 -30.61696,17.9841 -42.23318,21.75855 -19.54787,6.35167 -42.37697,8.77387 -62.60756,6.64273 z m 28.1065,-101.50664 c 18.16506,-4.7314 32.75398,-19.54116 37.00177,-37.56188 7.55909,-32.06854 -16.68742,-62.90693 -49.46022,-62.90693 -28.033,0 -51,22.967 -51,51 0,22.85537 15.87396,43.43881 38.11233,49.41945 7.13963,1.92009 18.08209,1.9414 25.34612,0.0494 z m -15.06991,-47.89867 c -0.99567,-2.59467 0.39988,-4.73919 2.85699,-4.39028 1.65273,0.23469 2.25447,0.98741 2.25447,2.82014 0,1.83273 -0.60174,2.58545 -2.25447,2.82014 -1.35228,0.19202 -2.49559,-0.3082 -2.85699,-1.25 z"
         id="path3008"
         inkscape:connector-curvature="0" />
      <path
         style="fill:#707070"
         d="m 315.92857,560.56041 c -35.87714,-4.17419 -66.28534,-18.80675 -91.51698,-44.03839 -12.7508,-12.7508 -21.33611,-24.54864 -28.99029,-39.83811 -20.94785,-41.84403 -20.93479,-92.53979 0.0346,-134.42689 7.61977,-15.22075 16.22165,-27.03493 28.95567,-39.76896 22.40239,-22.40238 47.87969,-35.95516 79.18948,-42.12522 14.63447,-2.88394 38.35856,-3.07662 53.3275,-0.43311 60.31488,10.65159 107.53007,55.11627 122.03318,114.92416 10.1099,41.69122 1.12328,87.23638 -24.27172,123.01164 -7.40767,10.43557 -24.49764,27.51599 -34.97078,34.95123 -17.62569,12.51309 -41.93167,22.70882 -62.25805,26.11563 -11.51869,1.9306 -32.02362,2.73436 -41.53263,1.62802 z m 27.95845,-101.58656 c 27.04409,-7.04409 43.40982,-34.19033 37.00177,-61.37574 -5.33889,-22.6496 -26.14303,-39.09307 -49.46022,-39.09307 -28.033,0 -51,22.967 -51,51 0,22.91998 15.8111,43.4219 38.11233,49.41945 7.13963,1.92009 18.08209,1.9414 25.34612,0.0494 z m -15.06991,-47.89867 c -0.99567,-2.59467 0.39988,-4.73919 2.85699,-4.39028 1.65273,0.23469 2.25447,0.98741 2.25447,2.82014 0,1.83273 -0.60174,2.58545 -2.25447,2.82014 -1.35228,0.19202 -2.49559,-0.3082 -2.85699,-1.25 z"
         id="path3006"
         inkscape:connector-curvature="0" />
      <path
         style="fill:#505050"
         d="m 316.01806,560.47463 c -25.61235,-2.92492 -49.81774,-11.85719 -70.81896,-26.13362 -11.92004,-8.10312 -30.4211,-26.56483 -38.4288,-38.34705 -36.15525,-53.19743 -36.15525,-119.78041 0,-172.97784 8.0077,-11.78222 26.50876,-30.24393 38.4288,-38.34705 39.36939,-26.76293 87.82518,-33.8703 132.66428,-19.45885 50.60842,16.26572 88.39127,57.24215 101.09837,109.64367 10.1099,41.69122 1.12328,87.23638 -24.27172,123.01164 -7.40767,10.43557 -24.49764,27.51599 -34.97078,34.95123 -17.59377,12.49043 -41.93356,22.7096 -62.16261,26.09924 -11.91482,1.99649 -31.32641,2.72486 -41.53858,1.55863 z m 27.86896,-101.50078 c 27.04409,-7.04409 43.40982,-34.19033 37.00177,-61.37574 -9.06622,-38.46234 -57.54982,-52.16347 -85.54022,-24.17307 -27.75578,27.75578 -14.78369,75.2689 23.35451,85.54096 6.98795,1.88211 17.97499,1.88554 25.18394,0.008 z m -15.06991,-47.89867 c -0.99567,-2.59467 0.39988,-4.73919 2.85699,-4.39028 1.65273,0.23469 2.25447,0.98741 2.25447,2.82014 0,1.83273 -0.60174,2.58545 -2.25447,2.82014 -1.35228,0.19202 -2.49559,-0.3082 -2.85699,-1.25 z"
         id="path3004"
         inkscape:connector-curvature="0" />
      <path
         style="fill:#2f2f2f"
         d="m 316.01806,560.47463 c -25.61235,-2.92492 -49.81774,-11.85719 -70.81896,-26.13362 -11.92004,-8.10312 -30.4211,-26.56483 -38.4288,-38.34705 -36.14292,-53.17929 -36.14292,-119.79855 0,-172.97784 8.0077,-11.78222 26.50876,-30.24393 38.4288,-38.34705 39.36939,-26.76293 87.82518,-33.8703 132.66428,-19.45885 50.60842,16.26572 88.39127,57.24215 101.09837,109.64367 10.1099,41.69122 1.12328,87.23638 -24.27172,123.01164 -7.66826,10.80267 -24.64347,27.64832 -35.71816,35.44555 -17.55011,12.35628 -41.0518,22.10744 -61.85118,25.66286 -11.32925,1.9366 -30.99741,2.6547 -41.10263,1.50069 z m 27.86896,-101.50078 c 27.04409,-7.04409 43.40982,-34.19033 37.00177,-61.37574 -9.07279,-38.49019 -57.52955,-52.18374 -85.54022,-24.17307 -27.75578,27.75578 -14.78369,75.2689 23.35451,85.54096 6.98795,1.88211 17.97499,1.88554 25.18394,0.008 z m -15.06991,-47.89867 c -0.99567,-2.59467 0.39988,-4.73919 2.85699,-4.39028 1.65273,0.23469 2.25447,0.98741 2.25447,2.82014 0,1.83273 -0.60174,2.58545 -2.25447,2.82014 -1.35228,0.19202 -2.49559,-0.3082 -2.85699,-1.25 z"
         id="path3002"
         inkscape:connector-curvature="0" />
      <path
         style="fill:#0a0a0a"
         d="m 316.01806,560.47463 c -25.61235,-2.92492 -49.81774,-11.85719 -70.81896,-26.13362 -11.93392,-8.11256 -30.4277,-26.57005 -38.41134,-38.33597 -26.47263,-39.01411 -33.74625,-84.44381 -20.80927,-129.97087 3.32294,-11.69388 12.65761,-31.05406 20.62187,-42.76994 8.18326,-12.03803 26.55463,-30.4077 38.59874,-38.59516 10.63374,-7.22872 28.08081,-15.82406 39.72947,-19.57283 61.19432,-19.69353 128.91652,1.83264 167.52482,53.24941 39.8342,53.04936 40.7342,125.28635 2.23664,179.51988 -7.66826,10.80267 -24.64347,27.64832 -35.71816,35.44555 -17.55011,12.35628 -41.0518,22.10744 -61.85118,25.66286 -11.32925,1.9366 -30.99741,2.6547 -41.10263,1.50069 z m 27.86896,-101.50078 c 27.04409,-7.04409 43.40982,-34.19033 37.00177,-61.37574 -9.07279,-38.49019 -57.52955,-52.18374 -85.54022,-24.17307 -27.75578,27.75578 -14.78369,75.2689 23.35451,85.54096 6.98795,1.88211 17.97499,1.88554 25.18394,0.008 z m -15.06991,-47.89867 c -0.99567,-2.59467 0.39988,-4.73919 2.85699,-4.39028 1.65273,0.23469 2.25447,0.98741 2.25447,2.82014 0,1.83273 -0.60174,2.58545 -2.25447,2.82014 -1.35228,0.19202 -2.49559,-0.3082 -2.85699,-1.25 z"
         id="path3000"
         inkscape:connector-curvature="0" />
      <path
         style="fill:#000000"
         d="m 315.92857,560.48643 c -25.60212,-2.85331 -51.93388,-12.8627 -72.79068,-27.66967 -10.49844,-7.4532 -27.56784,-24.5226 -35.02104,-35.02104 -12.3599,-17.40991 -21.613,-39.0861 -25.853,-60.56292 -3.12839,-15.84618 -3.12839,-39.60934 0,-55.45552 12.38986,-62.75816 61.18228,-110.83218 123.66472,-121.84393 13.14536,-2.3167 37.59777,-2.38549 50,-0.14066 18.75849,3.39533 34.66527,9.05975 50.08469,17.8352 40.2139,22.88641 67.40277,61.94862 75.07856,107.86526 1.9249,11.51475 2.13974,34.45415 0.42626,45.51189 -9.20916,59.42984 -51.00357,107.574 -107.63192,123.98425 -18.06102,5.23388 -40.89063,7.39921 -57.95759,5.49714 z m 27.79681,-101.47048 c 22.89503,-5.9634 38.70319,-26.18592 38.70319,-49.51091 0,-28.033 -22.967,-51 -51,-51 -13.91941,0 -26.14737,5.07841 -36.03448,14.96552 -15.96595,15.96595 -19.56097,38.98964 -9.3476,59.86503 3.48651,7.12616 14.18359,17.8285 21.38208,21.39259 11.39644,5.64256 24.94889,7.24353 36.29681,4.28777 z m -14.90827,-47.94077 c -0.99567,-2.59467 0.39988,-4.73919 2.85699,-4.39028 1.65273,0.23469 2.25447,0.98741 2.25447,2.82014 0,1.83273 -0.60174,2.58545 -2.25447,2.82014 -1.35228,0.19202 -2.49559,-0.3082 -2.85699,-1.25 z"
         id="path2998"
         inkscape:connector-curvature="0" />
    </g>
  </g>
</svg>
