<?xml version="1.0" encoding="UTF-8" standalone="no"?>
<!-- Created with Inkscape (http://www.inkscape.org/) -->

<svg
   xmlns:dc="http://purl.org/dc/elements/1.1/"
   xmlns:cc="http://creativecommons.org/ns#"
   xmlns:rdf="http://www.w3.org/1999/02/22-rdf-syntax-ns#"
   xmlns:svg="http://www.w3.org/2000/svg"
   xmlns="http://www.w3.org/2000/svg"
   xmlns:sodipodi="http://sodipodi.sourceforge.net/DTD/sodipodi-0.dtd"
   xmlns:inkscape="http://www.inkscape.org/namespaces/inkscape"
   width="268.07999"
   height="127"
   id="svg2"
   version="1.1"
   inkscape:version="0.48.4 r9939"
   sodipodi:docname="Nouveau document 1">
  <defs
     id="defs4" />
  <sodipodi:namedview
     id="base"
     pagecolor="#ffffff"
     bordercolor="#666666"
     borderopacity="1.0"
     inkscape:pageopacity="0.0"
     inkscape:pageshadow="2"
     inkscape:zoom="0.49497475"
     inkscape:cx="585.86996"
     inkscape:cy="125.3119"
     inkscape:document-units="px"
     inkscape:current-layer="layer1"
     showgrid="false"
     inkscape:window-width="1100"
     inkscape:window-height="705"
     inkscape:window-x="270"
     inkscape:window-y="24"
     inkscape:window-maximized="0" />
  <metadata
     id="metadata7">
    <rdf:RDF>
      <cc:Work
         rdf:about="">
        <dc:format>image/svg+xml</dc:format>
        <dc:type
           rdf:resource="http://purl.org/dc/dcmitype/StillImage" />
        <dc:title></dc:title>
      </cc:Work>
    </rdf:RDF>
  </metadata>
  <g
     inkscape:label="Calque 1"
     inkscape:groupmode="layer"
     id="layer1"
     transform="translate(0,-925.36218)">
    <g
       id="g2996"
       transform="translate(-417.39109,153.64288)">
      <path
         style="fill:#d0d0d0"
         d="m 417.42856,897.2193 c 0,-0.825 0.43417,-1.5 0.96482,-1.5 0.53065,0 1.44096,-0.88969 2.02291,-1.97708 0.84041,-1.57032 0.64191,-2.39328 -0.96481,-4 -2.33519,-2.33519 -2.66401,-5.83968 -0.62146,-6.62348 2.33871,-0.89745 2.62056,-4.37742 0.52433,-6.47365 -2.45146,-2.45146 -2.45152,-5.03116 -1.9e-4,-7.13006 2.11294,-1.80916 1.8179,-5.29645 -0.52414,-6.19517 -0.7708,-0.29578 -1.40146,-1.6194 -1.40146,-2.94137 0,-2.00516 0.62301,-2.5032 3.7585,-3.00458 5.12636,-0.81974 11.44375,-5.11348 14.53282,-9.87754 7.05913,-10.8868 3.1603,-25.3832 -8.37253,-31.13025 -2.92131,-1.45575 -6.34812,-2.64682 -7.61513,-2.64682 -1.77811,0 -2.30366,-0.559 -2.30366,-2.45031 0,-1.34767 0.59644,-2.81017 1.32541,-3.25 2.43675,-1.47022 2.72346,-4.25082 0.65191,-6.32237 -2.51634,-2.51634 -2.51567,-5.07189 0.002,-7.22749 2.08704,-1.78698 1.78543,-4.57781 -0.65379,-6.04952 -1.51662,-0.91505 -1.81933,-5.70031 -0.36059,-5.70031 0.53065,0 1.44096,-0.88969 2.02291,-1.97708 0.84041,-1.57032 0.64191,-2.39328 -0.96481,-4 -1.11261,-1.11261 -2.02292,-2.69792 -2.02292,-3.52292 0,-1.32587 15.55556,-1.5 134,-1.5 133.33333,0 134,0.01 134,2 0,1.1 -0.62686,2 -1.39301,2 -0.76616,0 -1.66454,0.7076 -1.99642,1.57244 -0.68032,1.7729 0.9523,5.42756 2.42461,5.42756 1.75047,0 1.00359,4.52232 -1.03518,6.26797 -1.1,0.94185 -2,2.16686 -2,2.72224 0,0.55539 0.9,1.90979 2,3.00979 2.53075,2.53075 2.53075,4.46925 0,7 -2.51167,2.51166 -2.51167,3.58147 0,5.73203 1.1,0.94185 2,2.67993 2,3.8624 0,1.71245 -0.76577,2.27241 -3.76313,2.7517 -9.82627,1.57129 -18.23687,11.55776 -18.23687,21.65387 0,10.09611 8.4106,20.08258 18.23687,21.65387 2.99736,0.47929 3.76313,1.03925 3.76313,2.7517 0,1.18247 -0.9,2.92055 -2,3.8624 -2.51167,2.15056 -2.51167,3.22036 0,5.73203 1.1,1.1 2,2.675 2,3.5 0,0.825 -0.9,2.4 -2,3.5 -2.51167,2.51167 -2.51167,3.58147 0,5.73203 2.03877,1.74565 2.78565,6.26797 1.03518,6.26797 -0.53065,0 -1.49055,0.98235 -2.13312,2.183 -0.98885,1.84769 -0.84066,2.4483 0.96482,3.91029 1.17322,0.95001 2.13312,2.21766 2.13312,2.817 0,0.78086 -37.97919,1.08971 -134,1.08971 -118.44444,0 -134,-0.17413 -134,-1.5 z"
         id="path3010"
         inkscape:connector-curvature="0" />
      <path
         style="fill:#b0b0b0"
         d="m 417.42856,897.2193 c 0,-0.825 0.43417,-1.5 0.96482,-1.5 0.53065,0 1.44096,-0.88969 2.02291,-1.97708 0.84041,-1.57032 0.64191,-2.39328 -0.96481,-4 -2.33519,-2.33519 -2.66401,-5.83968 -0.62146,-6.62348 2.33871,-0.89745 2.62056,-4.37742 0.52433,-6.47365 -2.45146,-2.45146 -2.45152,-5.03116 -1.9e-4,-7.13006 2.11294,-1.80916 1.8179,-5.29645 -0.52414,-6.19517 -0.7708,-0.29578 -1.40146,-1.6194 -1.40146,-2.94137 0,-2.00516 0.62301,-2.5032 3.7585,-3.00458 5.12636,-0.81974 11.44375,-5.11348 14.53282,-9.87754 7.05913,-10.8868 3.1603,-25.3832 -8.37253,-31.13025 -2.92131,-1.45575 -6.34812,-2.64682 -7.61513,-2.64682 -1.77811,0 -2.30366,-0.559 -2.30366,-2.45031 0,-1.34767 0.59644,-2.81017 1.32541,-3.25 2.43675,-1.47022 2.72346,-4.25082 0.65191,-6.32237 -2.51634,-2.51634 -2.51567,-5.07189 0.002,-7.22749 2.08704,-1.78698 1.78543,-4.57781 -0.65379,-6.04952 -1.51662,-0.91505 -1.81933,-5.70031 -0.36059,-5.70031 0.53065,0 1.44096,-0.88969 2.02291,-1.97708 0.84041,-1.57032 0.64191,-2.39328 -0.96481,-4 -1.11261,-1.11261 -2.02292,-2.69792 -2.02292,-3.52292 0,-1.32587 15.55556,-1.5 134,-1.5 133.33333,0 134,0.01 134,2 0,1.1 -0.62686,2 -1.39301,2 -0.76616,0 -1.66454,0.7076 -1.99642,1.57244 -0.68032,1.7729 0.9523,5.42756 2.42461,5.42756 1.75047,0 1.00359,4.52232 -1.03518,6.26797 -1.1,0.94185 -2,2.16686 -2,2.72224 0,0.55539 0.9,1.90979 2,3.00979 2.53075,2.53075 2.53075,4.46925 0,7 -2.51167,2.51166 -2.51167,3.58147 0,5.73203 2.86421,2.45241 2.669,6.26797 -0.32069,6.26797 -1.27637,0 -4.76168,1.2375 -7.74513,2.75 -6.91049,3.50337 -11.06692,9.80549 -11.72849,17.78315 -0.89379,10.77793 7.4071,21.42186 18.03118,23.12072 2.99736,0.47929 3.76313,1.03925 3.76313,2.7517 0,1.18247 -0.9,2.92055 -2,3.8624 -2.51167,2.15056 -2.51167,3.22036 0,5.73203 1.1,1.1 2,2.675 2,3.5 0,0.825 -0.9,2.4 -2,3.5 -2.51167,2.51167 -2.51167,3.58147 0,5.73203 2.03877,1.74565 2.78565,6.26797 1.03518,6.26797 -0.53065,0 -1.49055,0.98235 -2.13312,2.183 -0.98885,1.84769 -0.84066,2.4483 0.96482,3.91029 1.17322,0.95001 2.13312,2.21766 2.13312,2.817 0,0.78086 -37.97919,1.08971 -134,1.08971 -118.44444,0 -134,-0.17413 -134,-1.5 z"
         id="path3008"
         inkscape:connector-curvature="0" />
      <path
         style="fill:#909090"
         d="m 417.42856,897.2193 c 0,-0.825 0.43417,-1.5 0.96482,-1.5 0.53065,0 1.44096,-0.88969 2.02291,-1.97708 0.84041,-1.57032 0.64191,-2.39328 -0.96481,-4 -2.33519,-2.33519 -2.66401,-5.83968 -0.62146,-6.62348 2.33871,-0.89745 2.62056,-4.37742 0.52433,-6.47365 -2.47374,-2.47374 -2.44732,-5.03476 0.0742,-7.19376 2.51718,-2.15528 2.51718,-3.30878 0,-5.46406 -1.1,-0.94185 -2,-2.67993 -2,-3.8624 0,-1.71198 0.76565,-2.27239 3.7585,-2.75096 5.12636,-0.81974 11.44375,-5.11348 14.53282,-9.87754 7.05913,-10.8868 3.1603,-25.3832 -8.37253,-31.13025 -2.92131,-1.45575 -6.34812,-2.64682 -7.61513,-2.64682 -1.77811,0 -2.30366,-0.559 -2.30366,-2.45031 0,-1.34767 0.59644,-2.81017 1.32541,-3.25 2.43675,-1.47022 2.72346,-4.25082 0.65191,-6.32237 -2.52255,-2.52255 -2.51456,-5.07284 0.0227,-7.24529 2.51718,-2.15528 2.51718,-3.30878 0,-5.46406 -2.03877,-1.74565 -2.78565,-6.26797 -1.03518,-6.26797 0.53065,0 1.44096,-0.88969 2.02291,-1.97708 0.84041,-1.57032 0.64191,-2.39328 -0.96481,-4 -1.11261,-1.11261 -2.02292,-2.69792 -2.02292,-3.52292 0,-1.32587 15.55556,-1.5 134,-1.5 133.33333,0 134,0.01 134,2 0,1.1 -0.62686,2 -1.39301,2 -0.76616,0 -1.66454,0.7076 -1.99642,1.57244 -0.68032,1.7729 0.9523,5.42756 2.42461,5.42756 1.75047,0 1.00359,4.52232 -1.03518,6.26797 -1.1,0.94185 -2,2.16686 -2,2.72224 0,0.55539 0.9,1.90979 2,3.00979 2.53075,2.53075 2.53075,4.46925 0,7 -2.51167,2.51166 -2.51167,3.58147 0,5.73203 2.86421,2.45241 2.669,6.26797 -0.32069,6.26797 -1.27637,0 -4.76168,1.2375 -7.74513,2.75 -6.91049,3.50337 -11.06692,9.80549 -11.72849,17.78315 -0.89379,10.77793 7.4071,21.42186 18.03118,23.12072 2.99736,0.47929 3.76313,1.03925 3.76313,2.7517 0,1.18247 -0.9,2.92055 -2,3.8624 -2.51167,2.15056 -2.51167,3.22036 0,5.73203 1.1,1.1 2,2.675 2,3.5 0,0.825 -0.9,2.4 -2,3.5 -2.51167,2.51167 -2.51167,3.58147 0,5.73203 2.03877,1.74565 2.78565,6.26797 1.03518,6.26797 -0.53065,0 -1.49055,0.98235 -2.13312,2.183 -0.98885,1.84769 -0.84066,2.4483 0.96482,3.91029 1.17322,0.95001 2.13312,2.21766 2.13312,2.817 0,0.78086 -37.97919,1.08971 -134,1.08971 -118.44444,0 -134,-0.17413 -134,-1.5 z"
         id="path3006"
         inkscape:connector-curvature="0" />
      <path
         style="fill:#505050"
         d="m 417.42856,897.2193 c 0,-0.825 0.43417,-1.5 0.96482,-1.5 0.53065,0 1.44096,-0.88969 2.02291,-1.97708 0.84041,-1.57032 0.64191,-2.39328 -0.96481,-4 -2.33519,-2.33519 -2.66401,-5.83968 -0.62146,-6.62348 2.33871,-0.89745 2.62056,-4.37742 0.52433,-6.47365 -2.47374,-2.47374 -2.44732,-5.03476 0.0742,-7.19376 2.51718,-2.15528 2.51718,-3.30878 0,-5.46406 -1.1,-0.94185 -2,-2.67993 -2,-3.8624 0,-1.71198 0.76565,-2.27239 3.7585,-2.75096 5.12636,-0.81974 11.44375,-5.11348 14.53282,-9.87754 7.05913,-10.8868 3.1603,-25.3832 -8.37253,-31.13025 -2.92131,-1.45575 -6.34812,-2.64682 -7.61513,-2.64682 -1.77811,0 -2.30366,-0.559 -2.30366,-2.45031 0,-1.34767 0.59644,-2.81017 1.32541,-3.25 2.43675,-1.47022 2.72346,-4.25082 0.65191,-6.32237 -2.52255,-2.52255 -2.51456,-5.07284 0.0227,-7.24529 2.51718,-2.15528 2.51718,-3.30878 0,-5.46406 -2.03877,-1.74565 -2.78565,-6.26797 -1.03518,-6.26797 0.53065,0 1.44096,-0.88969 2.02291,-1.97708 0.84041,-1.57032 0.64191,-2.39328 -0.96481,-4 -1.11261,-1.11261 -2.02292,-2.69792 -2.02292,-3.52292 0,-1.32587 15.55556,-1.5 134,-1.5 133.33333,0 134,0.01 134,2 0,1.1 -0.62686,2 -1.39301,2 -0.76616,0 -1.66454,0.7076 -1.99642,1.57244 -0.68032,1.7729 0.9523,5.42756 2.42461,5.42756 1.75047,0 1.00359,4.52232 -1.03518,6.26797 -1.1,0.94185 -2,2.16686 -2,2.72224 0,0.55539 0.9,1.90979 2,3.00979 2.53075,2.53075 2.53075,4.46925 0,7 -2.51167,2.51166 -2.51167,3.58147 0,5.73203 1.1,0.94185 2,2.63095 2,3.75356 0,1.63134 -1.03044,2.28588 -5.13281,3.26037 -6.79034,1.613 -11.09227,5.05797 -14.26381,11.42242 -3.44128,6.90575 -3.42835,12.78343 0.0434,19.75041 2.9907,6.00154 9.26377,10.72346 15.59005,11.73508 2.99736,0.47929 3.76313,1.03925 3.76313,2.7517 0,1.18247 -0.9,2.92055 -2,3.8624 -2.51167,2.15056 -2.51167,3.22036 0,5.73203 1.1,1.1 2,2.675 2,3.5 0,0.825 -0.9,2.4 -2,3.5 -2.51167,2.51167 -2.51167,3.58147 0,5.73203 2.03877,1.74565 2.78565,6.26797 1.03518,6.26797 -0.53065,0 -1.49055,0.98235 -2.13312,2.183 -0.98885,1.84769 -0.84066,2.4483 0.96482,3.91029 1.17326,0.95001 2.13316,2.21766 2.13316,2.817 0,0.78086 -37.97919,1.08971 -134,1.08971 -118.44444,0 -134,-0.17413 -134,-1.5 z"
         id="path3004"
         inkscape:connector-curvature="0" />
      <path
         style="fill:#2f2f2f"
         d="m 417.42856,897.2193 c 0,-0.825 0.43417,-1.5 0.96482,-1.5 0.53065,0 1.44096,-0.88969 2.02291,-1.97708 0.84041,-1.57032 0.64191,-2.39328 -0.96481,-4 -2.56577,-2.56577 -2.57376,-5.10679 -0.0229,-7.29089 2.51167,-2.15056 2.51167,-3.22036 0,-5.73203 -1.1,-1.1 -2,-2.79999 -2,-3.77776 0,-0.97777 0.9,-2.54836 2,-3.49021 2.51718,-2.15528 2.51718,-3.30878 0,-5.46406 -1.1,-0.94185 -2,-2.67993 -2,-3.8624 0,-1.71198 0.76565,-2.27239 3.7585,-2.75096 5.12636,-0.81974 11.44375,-5.11348 14.53282,-9.87754 7.05913,-10.8868 3.1603,-25.3832 -8.37253,-31.13025 -2.92131,-1.45575 -6.34812,-2.64682 -7.61513,-2.64682 -2.97318,0 -3.15842,-3.82365 -0.30366,-6.26797 2.51167,-2.15056 2.51167,-3.22037 0,-5.73203 -1.1,-1.1 -2,-2.79999 -2,-3.77776 0,-0.97777 0.9,-2.54836 2,-3.49021 2.51718,-2.15528 2.51718,-3.30878 0,-5.46406 -2.03877,-1.74565 -2.78565,-6.26797 -1.03518,-6.26797 0.53065,0 1.44096,-0.88969 2.02291,-1.97708 0.84041,-1.57032 0.64191,-2.39328 -0.96481,-4 -1.11261,-1.11261 -2.02292,-2.69792 -2.02292,-3.52292 0,-1.32587 15.55556,-1.5 134,-1.5 133.33333,0 134,0.01 134,2 0,1.1 -0.62686,2 -1.39301,2 -0.76616,0 -1.66454,0.7076 -1.99642,1.57244 -0.68032,1.7729 0.9523,5.42756 2.42461,5.42756 1.75047,0 1.00359,4.52232 -1.03518,6.26797 -1.1,0.94185 -2,2.16686 -2,2.72224 0,0.55539 0.9,1.90979 2,3.00979 2.53075,2.53075 2.53075,4.46925 0,7 -2.51167,2.51166 -2.51167,3.58147 0,5.73203 1.1,0.94185 2,2.68635 2,3.87667 0,1.79236 -0.759,2.27803 -4.41746,2.82665 -9.49109,1.42328 -17.55072,11.33836 -17.57277,21.61831 -0.0215,10.0283 8.41999,20.03199 18.2271,21.60021 2.99736,0.47929 3.76313,1.03925 3.76313,2.7517 0,1.18247 -0.9,2.92055 -2,3.8624 -2.51167,2.15056 -2.51167,3.22036 0,5.73203 1.1,1.1 2,2.675 2,3.5 0,0.825 -0.9,2.4 -2,3.5 -2.51167,2.51167 -2.51167,3.58147 0,5.73203 2.03877,1.74565 2.78565,6.26797 1.03518,6.26797 -0.53065,0 -1.49055,0.98235 -2.13312,2.183 -0.98885,1.84769 -0.84066,2.4483 0.96482,3.91029 1.17322,0.95001 2.13312,2.21766 2.13312,2.817 0,0.78086 -37.97919,1.08971 -134,1.08971 -118.44444,0 -134,-0.17413 -134,-1.5 z"
         id="path3002"
         inkscape:connector-curvature="0" />
      <path
         style="fill:#0a0a0a"
         d="m 417.42856,897.2193 c 0,-0.825 0.43417,-1.5 0.96482,-1.5 0.53065,0 1.44096,-0.88969 2.02291,-1.97708 0.84041,-1.57032 0.64191,-2.39328 -0.96481,-4 -2.56577,-2.56577 -2.57376,-5.10679 -0.0229,-7.29089 2.51167,-2.15056 2.51167,-3.22036 0,-5.73203 -2.53075,-2.53075 -2.53075,-4.46925 0,-7 2.51167,-2.51167 2.51167,-3.58147 0,-5.73203 -2.85476,-2.44432 -2.66952,-6.26797 0.30366,-6.26797 4.05184,0 12.32638,-4.85864 15.10635,-8.87015 5.28728,-7.62954 5.91521,-15.07778 1.94317,-23.04864 -2.9907,-6.00154 -9.26377,-10.72347 -15.59005,-11.73508 -2.99736,-0.47929 -3.76313,-1.03925 -3.76313,-2.7517 0,-1.18247 0.9,-2.92055 2,-3.8624 2.51167,-2.15056 2.51167,-3.22037 0,-5.73203 -2.53075,-2.53075 -2.53075,-4.46925 0,-7 2.51167,-2.51167 2.51167,-3.58147 0,-5.73203 -2.03877,-1.74565 -2.78565,-6.26797 -1.03518,-6.26797 0.53065,0 1.44096,-0.88969 2.02291,-1.97708 0.84041,-1.57032 0.64191,-2.39328 -0.96481,-4 -1.11261,-1.11261 -2.02292,-2.69792 -2.02292,-3.52292 0,-1.32587 15.55556,-1.5 134,-1.5 133.33333,0 134,0.01 134,2 0,1.1 -0.62686,2 -1.39301,2 -0.76616,0 -1.66454,0.7076 -1.99642,1.57244 -0.68032,1.7729 0.9523,5.42756 2.42461,5.42756 1.75047,0 1.00359,4.52232 -1.03518,6.26797 -1.1,0.94185 -2,2.16686 -2,2.72224 0,0.55539 0.9,1.90979 2,3.00979 2.53075,2.53075 2.53075,4.46925 0,7 -2.51167,2.51166 -2.51167,3.58147 0,5.73203 1.1,0.94185 2,2.68635 2,3.87667 0,1.79236 -0.759,2.27803 -4.41746,2.82665 -9.49109,1.42328 -17.55072,11.33836 -17.57277,21.61831 -0.0215,10.0283 8.41999,20.03199 18.2271,21.60021 2.99736,0.47929 3.76313,1.03925 3.76313,2.7517 0,1.18247 -0.9,2.92055 -2,3.8624 -2.51167,2.15056 -2.51167,3.22036 0,5.73203 1.1,1.1 2,2.675 2,3.5 0,0.825 -0.9,2.4 -2,3.5 -2.51167,2.51167 -2.51167,3.58147 0,5.73203 2.03877,1.74565 2.78565,6.26797 1.03518,6.26797 -0.53065,0 -1.49055,0.98235 -2.13312,2.183 -0.98885,1.84769 -0.84066,2.4483 0.96482,3.91029 1.17322,0.95001 2.13312,2.21766 2.13312,2.817 0,0.78086 -37.97919,1.08971 -134,1.08971 -118.44444,0 -134,-0.17413 -134,-1.5 z"
         id="path3000"
         inkscape:connector-curvature="0" />
      <path
         style="fill:#000000"
         d="m 417.42856,897.62959 c 0,-0.59934 0.9599,-1.86699 2.13312,-2.817 1.80548,-1.46199 1.95367,-2.0626 0.96482,-3.91029 -0.64257,-1.20065 -1.60247,-2.183 -2.13312,-2.183 -1.75047,0 -1.00359,-4.52232 1.03518,-6.26797 2.51167,-2.15056 2.51167,-3.22036 0,-5.73203 -2.53075,-2.53075 -2.53075,-4.46925 0,-7 2.51167,-2.51167 2.51167,-3.58147 0,-5.73203 -1.1,-0.94185 -2,-2.63095 -2,-3.75356 0,-1.6245 1.02129,-2.28371 5.00372,-3.22971 6.6502,-1.5797 11.34523,-5.3372 14.4474,-11.56245 3.42584,-6.87476 3.3661,-12.75203 -0.20112,-19.78675 -3.24192,-6.39321 -8.98031,-10.82138 -15.08418,-11.64008 -3.42011,-0.45874 -4.16582,-0.94293 -4.16582,-2.70485 0,-1.18035 0.9,-2.91669 2,-3.85854 2.51167,-2.15056 2.51167,-3.22037 0,-5.73203 -2.53075,-2.53075 -2.53075,-4.46925 0,-7 2.51167,-2.51167 2.51167,-3.58147 0,-5.73203 -2.03877,-1.74565 -2.78565,-6.26797 -1.03518,-6.26797 1.47231,0 3.10493,-3.65466 2.42461,-5.42756 -0.33188,-0.86484 -1.23026,-1.57244 -1.99642,-1.57244 -0.76615,0 -1.39301,-0.9 -1.39301,-2 0,-1.99005 0.66667,-2 134,-2 133.33333,0 134,0.01 134,2 0,1.1 -0.64468,2 -1.43261,2 -2.58014,0 -3.05674,4.18533 -0.69442,6.09822 2.66149,2.15515 2.70147,4.32733 0.12703,6.90178 -2.54184,2.54184 -2.54184,4.64467 0,6.23207 1.1,0.68696 2,2.15753 2,3.26793 0,1.1104 -0.9,2.58097 -2,3.26793 -2.54695,1.5906 -2.54695,3.78333 0,5.9641 1.1,0.94185 2,2.73744 2,3.99021 0,1.80464 -0.55756,2.27776 -2.68428,2.27776 -1.47635,0 -4.62689,0.94041 -7.00121,2.08979 -18.32608,8.87151 -15.33407,36.44029 4.46525,41.14348 4.1836,0.99379 5.22024,1.64536 5.22024,3.28114 0,1.12261 -0.9,2.81171 -2,3.75356 -2.54695,2.18077 -2.54695,4.3735 0,5.9641 2.56782,1.60363 2.56782,4.93223 0,6.53586 -2.54695,1.5906 -2.54695,3.78333 0,5.9641 2.59214,2.21945 2.54273,5.00791 -0.12703,7.16975 -2.36232,1.91289 -1.88572,6.09822 0.69442,6.09822 0.78793,0 1.43261,0.675 1.43261,1.5 0,1.32587 -15.55556,1.5 -134,1.5 -96.02081,0 -134,-0.30885 -134,-1.08971 z"
         id="path2998"
         inkscape:connector-curvature="0" />
    </g>
  </g>
</svg>
