<?xml version="1.0" encoding="UTF-8" standalone="no"?>
<!-- Created with Inkscape (http://www.inkscape.org/) -->

<svg
   xmlns:dc="http://purl.org/dc/elements/1.1/"
   xmlns:cc="http://creativecommons.org/ns#"
   xmlns:rdf="http://www.w3.org/1999/02/22-rdf-syntax-ns#"
   xmlns:svg="http://www.w3.org/2000/svg"
   xmlns="http://www.w3.org/2000/svg"
   xmlns:sodipodi="http://sodipodi.sourceforge.net/DTD/sodipodi-0.dtd"
   xmlns:inkscape="http://www.inkscape.org/namespaces/inkscape"
   width="310.29001"
   height="189.62"
   id="svg2"
   version="1.1"
   inkscape:version="0.48.4 r9939"
   sodipodi:docname="Nouveau document 1">
  <defs
     id="defs4" />
  <sodipodi:namedview
     id="base"
     pagecolor="#ffffff"
     bordercolor="#666666"
     borderopacity="1.0"
     inkscape:pageopacity="0.0"
     inkscape:pageshadow="2"
     inkscape:zoom="0.35"
     inkscape:cx="392.33498"
     inkscape:cy="437.16254"
     inkscape:document-units="px"
     inkscape:current-layer="layer1"
     showgrid="false"
     inkscape:window-width="958"
     inkscape:window-height="562"
     inkscape:window-x="329"
     inkscape:window-y="90"
     inkscape:window-maximized="0" />
  <metadata
     id="metadata7">
    <rdf:RDF>
      <cc:Work
         rdf:about="">
        <dc:format>image/svg+xml</dc:format>
        <dc:type
           rdf:resource="http://purl.org/dc/dcmitype/StillImage" />
        <dc:title></dc:title>
      </cc:Work>
    </rdf:RDF>
  </metadata>
  <g
     inkscape:label="Calque 1"
     inkscape:groupmode="layer"
     id="layer1"
     transform="translate(0,-862.74218)">
    <g
       id="g2996"
       transform="translate(-250.94653,676.57518)">
      <path
         style="fill:#b0b0b0"
         d="m 275.71428,375.03979 c -6.04449,-1.62657 -10.48304,-4.04935 -14.933,-8.15117 -5.61582,-5.17649 -8.15192,-9.18297 -9.48538,-14.98485 -1.16477,-5.06791 0.99447,-19.99848 12.33024,-85.26032 5.20601,-29.97182 6.8962,-37.78999 9.11985,-42.18496 3.01841,-5.96579 11.78013,-15.30079 16.99914,-18.11142 2.76233,-1.48761 3.5779,-2.71737 4.55145,-6.86291 1.91737,-8.16448 3.43173,-10.33269 8.17438,-11.70379 6.73131,-1.94602 22.21515,-1.66071 29.42959,0.54228 6.70893,2.04863 7.16131,2.62094 9.41198,11.90714 0.9825,4.05378 1.75091,5.09639 4.96424,6.73571 2.091,1.06675 4.0839,2.39597 4.42868,2.95383 0.86308,1.39649 110.15158,1.40135 111.01461,0.005 0.3431,-0.55514 2.2398,-1.83841 4.2149,-2.85169 3.21464,-1.64921 3.8106,-2.61788 5.6852,-9.24065 l 2.09412,-7.39827 5.5,-1.89671 c 6.91385,-2.38428 25.38303,-2.68998 31.5,-0.52138 3.80478,1.34888 4.1198,1.79062 6.4546,9.05087 2.07914,6.46525 2.95805,7.90391 5.74585,9.40524 4.82185,2.59673 13.66876,12.28365 16.72292,18.31076 2.95962,5.84054 3.2045,7.08441 14.04092,71.32346 4.14464,24.56973 7.53571,47.42219 7.53571,50.78324 0,10.88514 -6.84221,20.27245 -18.87999,25.9028 -4.50038,2.10493 -7.11417,2.6286 -13.12001,2.6286 -14.09728,0 -24.47839,-7.44076 -33.46569,-23.98688 -5.37547,-9.89654 -18.44995,-32.74898 -19.11977,-33.4188 -0.23234,-0.23233 -1.43876,0.53237 -2.68094,1.69934 -6.72741,6.32008 -22.63938,9.07029 -32.86023,5.67954 -4.02471,-1.33519 -6.94205,-3.35032 -11.62337,-8.02875 -3.4375,-3.43538 -6.25,-6.96281 -6.25,-7.83874 0,-1.39388 -2.10593,-1.59259 -16.87868,-1.59259 l -16.87868,0 -1.25347,3.02614 c -1.52266,3.67604 -9.51538,11.0359 -14.69983,13.53592 -4.81228,2.32055 -15.05322,3.03283 -21.82295,1.51783 -2.88034,-0.64459 -7.74045,-2.67949 -10.80023,-4.522 l -5.56325,-3.35001 -10.19476,18.14606 c -16.45144,29.28256 -18.4503,31.75388 -29.84695,36.90169 -4.84223,2.18721 -14.80696,3.1299 -19.5612,1.85054 z M 412.20324,263.43933 c 4.1996,-2.1717 6.01104,-5.33761 6.01104,-10.50571 0,-5.1681 -1.81144,-8.33401 -6.01104,-10.50571 -4.97096,-2.57058 -9.54367,-1.92929 -13.75365,1.92887 -3.38775,3.10464 -3.73531,3.9027 -3.73531,8.57684 0,4.67414 0.34756,5.4722 3.73531,8.57684 4.20998,3.85816 8.78269,4.49945 13.75365,1.92887 z"
         id="path3008"
         inkscape:connector-curvature="0" />
      <path
         style="fill:#909090"
         d="m 275.71428,375.03979 c -6.22684,-1.67564 -10.61286,-4.13159 -15.43687,-8.64389 -6.7103,-6.2767 -9.46245,-12.15206 -9.32606,-19.90949 0.0585,-3.32904 3.28326,-24.72779 7.16607,-47.55279 11.55898,-67.94909 11.70658,-68.69992 14.64817,-74.51387 3.00157,-5.9325 11.77327,-15.26891 16.97954,-18.07268 2.76233,-1.48761 3.5779,-2.71737 4.55145,-6.86291 1.91737,-8.16448 3.43173,-10.33269 8.17438,-11.70379 6.73131,-1.94602 22.21515,-1.66071 29.42959,0.54228 6.70893,2.04863 7.16131,2.62094 9.41198,11.90714 0.9825,4.05378 1.75091,5.09639 4.96424,6.73571 2.091,1.06675 4.0839,2.39597 4.42868,2.95383 0.86308,1.39649 110.15158,1.40135 111.01461,0.005 0.3431,-0.55514 2.28216,-1.85764 4.30902,-2.89444 3.32856,-1.70265 3.87875,-2.58778 5.6852,-9.14625 l 2,-7.26116 5.5,-1.99775 c 6.84747,-2.48718 25.20907,-2.8421 31.4882,-0.60864 3.48392,1.23921 4.20199,2.05074 5.679,6.41809 0.92994,2.74973 1.93352,6.14614 2.23018,7.54759 0.34055,1.60884 1.95894,3.34593 4.39052,4.71255 5.32582,2.99328 13.48532,11.87162 16.65003,18.11687 2.94272,5.80718 3.1995,7.1124 14.02636,71.29473 4.14464,24.56973 7.53571,47.42219 7.53571,50.78324 0,10.81791 -6.91402,20.36891 -18.62702,25.7313 -10.64514,4.87351 -21.61758,3.89832 -31.76519,-2.82318 -6.51863,-4.31776 -9.95033,-9.08967 -22.19545,-30.8636 -5.72217,-10.175 -10.82259,-19.17217 -11.33428,-19.99371 -0.79557,-1.27733 -1.26876,-1.17577 -3.26665,0.70116 -6.80416,6.39217 -22.66189,9.16173 -32.93804,5.75263 -4.02471,-1.33519 -6.94205,-3.35032 -11.62337,-8.02875 -3.4375,-3.43534 -6.25,-6.96277 -6.25,-7.8387 0,-1.39388 -2.10593,-1.59259 -16.87868,-1.59259 l -16.87868,0 -1.23223,2.97488 c -1.71124,4.1313 -9.11651,10.70069 -15.31583,13.58703 -9.3144,4.3367 -22.8234,2.91514 -32.87255,-3.45919 l -4.67797,-2.96731 -10.21534,18.18229 c -16.47487,29.32365 -18.46827,31.78895 -29.86752,36.93793 -4.84223,2.18721 -14.80696,3.1299 -19.5612,1.85054 z M 412.20324,263.43933 c 4.1996,-2.1717 6.01104,-5.33761 6.01104,-10.50571 0,-5.1681 -1.81144,-8.33401 -6.01104,-10.50571 -12.75149,-6.59405 -24.08167,9.52101 -13.53831,19.25571 3.98566,3.67996 8.64798,4.28459 13.53831,1.75571 z"
         id="path3006"
         inkscape:connector-curvature="0" />
      <path
         style="fill:#666666"
         d="m 275.54427,375.03507 c -7.86443,-2.02473 -17.07777,-8.77388 -21.33846,-15.6313 -3.68765,-5.93512 -4.07723,-10.90916 -1.93812,-24.74501 4.73514,-30.62698 17.11796,-101.59309 18.39793,-105.43869 2.62105,-7.87486 11.95639,-19.03694 19.17081,-22.92217 2.66182,-1.43348 3.49586,-2.70764 4.46015,-6.81374 1.91737,-8.16448 3.43173,-10.33269 8.17438,-11.70379 6.73131,-1.94602 22.21515,-1.66071 29.42959,0.54228 6.70893,2.04863 7.16131,2.62094 9.41198,11.90714 0.9825,4.05378 1.75091,5.09639 4.96424,6.73571 2.091,1.06675 4.0839,2.39597 4.42868,2.95383 0.86583,1.40095 110.15183,1.40095 111.01766,0 0.34478,-0.55786 2.33768,-1.88708 4.42868,-2.95383 3.21333,-1.63932 3.98174,-2.68193 4.96424,-6.73571 2.25067,-9.2862 2.70305,-9.85851 9.41198,-11.90714 7.6361,-2.33175 24.09752,-2.43039 30.18627,-0.18088 3.45717,1.27727 4.22785,2.14374 5.679,6.38483 0.92345,2.69886 1.92172,6.03202 2.21836,7.40702 0.33383,1.54733 2.21867,3.55284 4.94619,5.26286 5.96482,3.73965 12.92927,11.36861 16.11188,17.64919 2.9224,5.76707 3.19363,7.14679 14.00886,71.26019 4.14464,24.56973 7.53571,47.42219 7.53571,50.78324 0,10.81791 -6.91402,20.36891 -18.62702,25.7313 -10.64514,4.87351 -21.61758,3.89832 -31.76519,-2.82318 -6.51863,-4.31776 -9.95033,-9.08967 -22.19545,-30.8636 -5.72217,-10.175 -10.82259,-19.17217 -11.33428,-19.99371 -0.79557,-1.27733 -1.26876,-1.17577 -3.26665,0.70116 -5.02324,4.71908 -11.62146,6.77073 -21.81141,6.78202 -8.15754,0.009 -10.18726,-0.34047 -14.36344,-2.47338 -5.066,-2.58736 -14.63656,-12.13184 -14.63656,-14.59668 0,-1.16982 -2.96798,-1.41941 -16.87868,-1.41941 l -16.87868,0 -1.23223,2.97488 c -1.71124,4.1313 -9.11651,10.70069 -15.31583,13.58703 -9.3144,4.3367 -22.8234,2.91514 -32.87255,-3.45919 l -4.67797,-2.96731 -10.21534,18.18229 c -16.4155,29.21799 -18.48991,31.79542 -29.65244,36.8428 -4.76673,2.15537 -15.17825,3.16851 -19.94629,1.94095 z M 412.20324,263.43933 c 4.25763,-2.20171 6.01104,-5.32651 6.01104,-10.71244 0,-3.78187 -0.56588,-5.395 -2.75,-7.83924 -5.57576,-6.23983 -16.23033,-4.72995 -19.80678,2.80686 -4.94719,10.42544 6.24206,21.07306 16.54574,15.74482 z"
         id="path3004"
         inkscape:connector-curvature="0" />
      <path
         style="fill:#2f2f2f"
         d="m 275.54427,375.03507 c -7.86557,-2.02503 -17.07781,-8.77393 -21.33992,-15.63366 -4.79906,-7.72393 -4.78853,-7.85626 5.51112,-69.23845 5.23541,-31.20114 10.01586,-58.30434 10.62323,-60.22934 0.60736,-1.925 2.44178,-5.62508 4.07648,-8.22241 3.26258,-5.18382 13.62392,-15.26983 16.68461,-16.24125 1.33627,-0.42412 2.31187,-2.22352 3.15822,-5.82502 1.95831,-8.33332 3.44945,-10.48745 8.21295,-11.86457 6.73131,-1.94602 22.21515,-1.66071 29.42959,0.54228 6.69291,2.04374 7.16682,2.63861 9.37776,11.77125 0.97494,4.02714 1.80347,5.08003 6.09854,7.75 l 4.97032,3.08972 54.37454,0 c 35.68171,0 54.59004,-0.34869 55.0014,-1.01429 0.34478,-0.55786 2.33768,-1.88708 4.42868,-2.95383 3.21333,-1.63932 3.98174,-2.68193 4.96424,-6.73571 2.25067,-9.2862 2.70305,-9.85851 9.41198,-11.90714 7.6361,-2.33175 24.09752,-2.43039 30.18627,-0.18088 3.45717,1.27727 4.22785,2.14374 5.679,6.38483 0.92345,2.69886 1.92172,6.03202 2.21836,7.40702 0.33383,1.54733 2.21867,3.55284 4.94619,5.26286 5.95176,3.73146 12.92733,11.36477 16.09132,17.6086 2.67751,5.28381 6.22154,23.82558 17.10915,89.51206 5.2066,31.41213 5.4546,36.71229 2.03366,43.46318 -4.65368,9.18361 -16.01894,16.72409 -26.89968,17.84708 -10.30583,1.06366 -22.56518,-4.61681 -29.39245,-13.61922 -1.9081,-2.51601 -8.15104,-12.89956 -13.87321,-23.07456 -5.72217,-10.175 -10.82259,-19.17217 -11.33428,-19.99371 -0.79557,-1.27733 -1.26876,-1.17577 -3.26665,0.70116 -5.02324,4.71908 -11.62146,6.77073 -21.81141,6.78202 -8.15754,0.009 -10.18726,-0.34047 -14.36344,-2.47338 -5.066,-2.58736 -14.63656,-12.13184 -14.63656,-14.59668 0,-1.16982 -2.96798,-1.41941 -16.87868,-1.41941 l -16.87868,0 -1.23223,2.97488 c -1.71124,4.1313 -9.11651,10.70069 -15.31583,13.58703 -9.31984,4.33924 -22.82326,2.91523 -32.88653,-3.46806 l -4.69195,-2.97617 -9.71604,17.19116 c -17.67336,31.2705 -18.21421,31.96637 -28.94867,37.24579 -5.50393,2.70694 -15.71641,3.93836 -21.1214,2.54682 z M 412.20324,263.43933 c 4.25763,-2.20171 6.01104,-5.32651 6.01104,-10.71244 0,-3.78187 -0.56588,-5.395 -2.75,-7.83924 -5.57576,-6.23983 -16.23033,-4.72995 -19.80678,2.80686 -4.94719,10.42544 6.24206,21.07306 16.54574,15.74482 z"
         id="path3002"
         inkscape:connector-curvature="0" />
      <path
         style="fill:#0a0a0a"
         d="m 275.54427,375.03507 c -11.59332,-2.98475 -21.96231,-13.0364 -24.32538,-23.5809 -0.89414,-3.9898 0.17135,-11.67583 8.49658,-61.29121 5.23541,-31.20114 10.01586,-58.30434 10.62323,-60.22934 0.60736,-1.925 2.44178,-5.62508 4.07648,-8.22241 3.26258,-5.18382 13.62392,-15.26983 16.68461,-16.24125 1.33627,-0.42412 2.31187,-2.22352 3.15822,-5.82502 1.95831,-8.33332 3.44945,-10.48745 8.21295,-11.86457 6.61355,-1.91198 22.18885,-1.632 29.41781,0.52881 6.68838,1.99922 7.16553,2.5981 9.38954,11.78472 0.97494,4.02714 1.80347,5.08003 6.09854,7.75 l 4.97032,3.08972 54.37454,0 c 35.68171,0 54.59004,-0.34869 55.0014,-1.01429 0.34478,-0.55786 2.33768,-1.88708 4.42868,-2.95383 3.21333,-1.63932 3.98174,-2.68193 4.96424,-6.73571 2.25067,-9.2862 2.70305,-9.85851 9.41198,-11.90714 7.6361,-2.33175 24.09752,-2.43039 30.18627,-0.18088 3.45717,1.27727 4.22785,2.14374 5.679,6.38483 0.92345,2.69886 1.92172,6.03202 2.21836,7.40702 0.33383,1.54733 2.21867,3.55284 4.94619,5.26286 2.42376,1.51958 6.45014,4.94732 8.94751,7.61722 8.0307,8.58547 9.22004,12.11689 14.7763,43.87417 9.12039,52.1283 13.92449,82.66278 13.92859,88.52899 0.0125,17.90579 -21.69049,32.72668 -40.09054,27.37764 -7.16081,-2.08171 -14.32634,-6.92513 -18.62061,-12.58632 -1.90852,-2.51601 -8.21104,-13.12456 -14.00561,-23.57456 -5.79456,-10.45 -10.92193,-19.42154 -11.39414,-19.93676 -0.51927,-0.56655 -1.7579,-0.0919 -3.13426,1.20116 -4.96285,4.66235 -11.59788,6.71382 -21.75079,6.72507 -8.15754,0.009 -10.18726,-0.34047 -14.36344,-2.47338 -5.066,-2.58736 -14.63656,-12.13184 -14.63656,-14.59668 0,-1.16982 -2.96798,-1.41941 -16.87868,-1.41941 l -16.87868,0 -1.23223,2.97488 c -1.71124,4.1313 -9.11651,10.70069 -15.31583,13.58703 -9.31984,4.33924 -22.82326,2.91523 -32.88653,-3.46806 l -4.69195,-2.97617 -9.71604,17.19116 c -17.67336,31.2705 -18.21421,31.96637 -28.94867,37.24579 -5.50393,2.70694 -15.71641,3.93836 -21.1214,2.54682 z M 412.20324,263.43933 c 4.25763,-2.20171 6.01104,-5.32651 6.01104,-10.71244 0,-3.78187 -0.56588,-5.395 -2.75,-7.83924 -5.57576,-6.23983 -16.23033,-4.72995 -19.80678,2.80686 -4.94719,10.42544 6.24206,21.07306 16.54574,15.74482 z"
         id="path3000"
         inkscape:connector-curvature="0" />
      <path
         style="fill:#000000"
         d="m 274.71428,374.5348 c -14.22471,-4.49869 -23.72809,-15.54339 -23.67543,-27.51528 0.022,-5.0045 5.91378,-41.82202 15.54639,-97.14908 3.80793,-21.87168 5.72978,-26.92296 13.33798,-35.05674 2.49737,-2.6699 6.41891,-6.04261 8.71452,-7.49492 3.69757,-2.33926 4.45356,-3.50273 6.62519,-10.19623 2.31988,-7.15045 2.66587,-7.63392 6.45135,-9.0149 5.86436,-2.13938 22.54934,-2.0686 29.74413,0.12618 6.61859,2.019 8.03,3.73449 9.81667,11.93162 0.94231,4.32328 1.76414,5.8914 3.34426,6.38119 1.15222,0.35716 3.28941,1.49033 4.74931,2.51818 2.51298,1.76926 5.53228,1.8688 56.68355,1.8688 l 54.02919,0 5.022,-3.12185 c 4.62921,-2.87767 5.12022,-3.56203 6.27789,-8.75 1.69977,-7.61726 3.93179,-9.56875 13.3378,-11.66139 8.5957,-1.91236 18.9718,-1.57611 25.99641,0.84244 3.48961,1.20146 4.21258,2.0016 5.67779,6.28378 0.92345,2.69886 1.93342,6.10028 2.24438,7.5587 0.37438,1.75592 2.01458,3.50098 4.8554,5.16581 5.68764,3.33318 12.93878,11.20492 16.13904,17.52034 2.7571,5.44087 4.06347,12.24274 15.54305,80.92804 3.32152,19.87352 6.03913,38.54292 6.03913,41.48756 0,14.76297 -15.00367,28.20882 -31.5,28.22937 -8.25155,0.0103 -13.72861,-1.93784 -21.15261,-7.52368 -5.53938,-4.16786 -6.44593,-5.52813 -21.79866,-32.70912 -5.35886,-9.4875 -10.07984,-17.25 -10.49107,-17.25 -0.41123,0 -1.52452,0.85839 -2.47398,1.90753 -3.21126,3.54841 -11.59097,6.39751 -20.23159,6.87876 -7.16406,0.399 -8.81533,0.14825 -13.67515,-2.07665 -6.46386,-2.95926 -13.93256,-9.49834 -15.68735,-13.73476 l -1.23223,-2.97488 -16.65128,0 -16.65127,0 -1.91204,3.55045 c -2.35556,4.374 -8.04922,9.61448 -13.74771,12.65347 -6.24243,3.32908 -21.01695,3.29919 -28.47376,-0.0576 -2.84828,-1.28219 -5.95552,-3.18965 -6.90498,-4.23879 -0.94946,-1.04914 -2.08029,-1.90753 -2.51296,-1.90753 -0.43266,0 -5.81246,8.8875 -11.95511,19.75 -6.14265,10.8625 -12.31442,21.45093 -13.71504,23.52985 -3.53755,5.25072 -11.20429,10.60964 -18.36888,12.83951 -6.9211,2.15409 -11.66081,2.2856 -17.36433,0.48182 z M 415.40489,261.04632 c 2.29852,-2.57249 2.80939,-4.06879 2.80939,-8.22848 0,-4.44872 -0.42498,-5.5092 -3.4,-8.48422 -2.77421,-2.77421 -4.16377,-3.4 -7.54966,-3.4 -10.19812,0 -15.79291,8.4182 -11.54468,17.37069 2.26631,4.77589 6.05284,6.77162 11.93495,6.29043 4.003,-0.32746 5.47376,-1.00087 7.75,-3.54842 z"
         id="path2998"
         inkscape:connector-curvature="0" />
    </g>
  </g>
</svg>
