<?xml version="1.0" encoding="UTF-8" standalone="no"?>
<!-- Created with Inkscape (http://www.inkscape.org/) -->

<svg
   xmlns:dc="http://purl.org/dc/elements/1.1/"
   xmlns:cc="http://creativecommons.org/ns#"
   xmlns:rdf="http://www.w3.org/1999/02/22-rdf-syntax-ns#"
   xmlns:svg="http://www.w3.org/2000/svg"
   xmlns="http://www.w3.org/2000/svg"
   xmlns:sodipodi="http://sodipodi.sourceforge.net/DTD/sodipodi-0.dtd"
   xmlns:inkscape="http://www.inkscape.org/namespaces/inkscape"
   width="305.25"
   height="306.82001"
   id="svg2"
   version="1.1"
   inkscape:version="0.48.4 r9939"
   sodipodi:docname="Nouveau document 1">
  <defs
     id="defs4" />
  <sodipodi:namedview
     id="base"
     pagecolor="#ffffff"
     bordercolor="#666666"
     borderopacity="1.0"
     inkscape:pageopacity="0.0"
     inkscape:pageshadow="2"
     inkscape:zoom="0.35"
     inkscape:cx="375"
     inkscape:cy="520"
     inkscape:document-units="px"
     inkscape:current-layer="layer1"
     showgrid="false"
     inkscape:window-width="860"
     inkscape:window-height="586"
     inkscape:window-x="335"
     inkscape:window-y="146"
     inkscape:window-maximized="0" />
  <metadata
     id="metadata7">
    <rdf:RDF>
      <cc:Work
         rdf:about="">
        <dc:format>image/svg+xml</dc:format>
        <dc:type
           rdf:resource="http://purl.org/dc/dcmitype/StillImage" />
        <dc:title></dc:title>
      </cc:Work>
    </rdf:RDF>
  </metadata>
  <g
     inkscape:label="Calque 1"
     inkscape:groupmode="layer"
     id="layer1"
     transform="translate(0,-745.54218)">
    <g
       id="g3007"
       transform="translate(-219.16981,527.6885)">
      <path
         style="fill:#b0b0b0"
         d="m 219.28462,522.89815 c 0.52864,-3.5659 2.92126,-6.29921 23.82292,-27.21507 l 23.23526,-23.25106 -2.20152,-2.34341 -2.20153,-2.34342 24.49441,-30.85952 c 13.47192,-16.97274 24.4944,-31.14886 24.4944,-31.5025 0,-0.35363 -2.67795,-3.76552 -5.95099,-7.58198 l -5.95099,-6.93901 67.941,-67.98909 67.941,-67.9891 9.01788,8.9761 9.01788,8.9761 12.22912,-12.22911 12.22911,-12.22912 -8.89871,-8.94013 -8.89872,-8.94014 6.13235,-6.31776 6.13235,-6.31775 26.27317,26.24619 26.27317,26.24619 -6.23837,6.23837 -6.23838,6.23837 -8.77282,-8.73217 -8.77282,-8.73218 -12.47154,12.50155 -12.47153,12.50155 8.74112,8.74113 8.74113,8.74112 -67.67543,67.68092 -67.67543,67.68091 -7.31949,-6.05447 c -5.27559,-4.36381 -7.67057,-5.77844 -8.57677,-5.06597 -0.69151,0.54367 -14.70235,11.65085 -31.13521,24.68263 l -29.87792,23.69414 -2.40732,-2.26156 -2.40733,-2.26157 -25.58055,25.45743 c -24.93633,24.8163 -25.56575,25.35759 -24.9929,21.49339 z"
         id="path3021"
         inkscape:connector-curvature="0" />
      <path
         style="fill:#909090"
         d="m 219.28462,522.89815 c 0.52864,-3.5659 2.92126,-6.29921 23.82292,-27.21507 l 23.23526,-23.25106 -2.18473,-2.32554 -2.18473,-2.32554 24.47761,-30.8757 c 13.46268,-16.98163 24.47761,-31.1658 24.47761,-31.52036 0,-0.35457 -2.67757,-3.76723 -5.95015,-7.58369 l -5.95015,-6.93901 67.6889,-67.74151 67.6889,-67.7415 8.53103,8.4915 c 4.69207,4.67033 8.97917,8.49151 9.52688,8.49151 0.54772,0 6.38061,-5.39882 12.96198,-11.99738 l 11.96612,-11.99738 -8.73253,-8.77318 -8.73253,-8.77318 5.92998,-6.47944 5.92998,-6.47944 26.31461,26.24619 26.3146,26.24619 -6.23837,6.23837 -6.23838,6.23837 -8.77282,-8.73217 -8.77282,-8.73218 -12.47154,12.50155 -12.47153,12.50155 8.74112,8.74113 8.74113,8.74112 -67.67543,67.68092 -67.67543,67.68091 -7.31949,-6.05447 c -5.26916,-4.3585 -7.67167,-5.77828 -8.57677,-5.0685 -0.69151,0.54228 -14.70975,11.64252 -31.15165,24.66719 l -29.89435,23.68123 -2.39089,-2.24612 -2.39089,-2.24613 -25.58055,25.45743 c -24.93633,24.8163 -25.56575,25.35759 -24.9929,21.49339 z"
         id="path3019"
         inkscape:connector-curvature="0" />
      <path
         style="fill:#707070"
         d="m 219.28462,522.89815 c 0.52864,-3.5659 2.92126,-6.29921 23.82292,-27.21507 l 23.23526,-23.25106 -2.18473,-2.32554 -2.18473,-2.32554 24.47761,-30.8757 c 13.46268,-16.98163 24.47761,-31.15925 24.47761,-31.50581 0,-0.34657 -2.46877,-3.53422 -5.48615,-7.08369 -3.01738,-3.54946 -5.49238,-6.90481 -5.5,-7.45634 -0.008,-0.55153 30.25425,-31.26838 67.24859,-68.25968 l 67.26245,-67.25691 8.46548,8.50968 c 4.65601,4.68033 8.93244,8.50969 9.50318,8.50969 0.57074,0 6.42247,-5.39882 13.00384,-11.99738 l 11.96612,-11.99738 -8.69819,-8.75262 -8.6982,-8.75262 5.90117,-6.5 5.90117,-6.5 26.30908,26.24619 26.30908,26.24619 -6.23837,6.23837 -6.23838,6.23837 -8.77282,-8.73217 -8.77282,-8.73218 -12.47154,12.50155 -12.47153,12.50155 8.74112,8.74113 8.74113,8.74112 -67.67543,67.68092 -67.67543,67.68091 -7.31949,-6.05447 c -5.26916,-4.3585 -7.67167,-5.77828 -8.57677,-5.0685 -0.69151,0.54228 -14.70975,11.64252 -31.15165,24.66719 l -29.89435,23.68123 -2.39089,-2.24612 -2.39089,-2.24613 -25.58055,25.45743 c -24.93633,24.8163 -25.56575,25.35759 -24.9929,21.49339 z"
         id="path3017"
         inkscape:connector-curvature="0" />
      <path
         style="fill:#505050"
         d="m 219.28462,522.89815 c 0.52864,-3.5659 2.92126,-6.29921 23.82292,-27.21507 l 23.23526,-23.25106 -2.18473,-2.32554 -2.18473,-2.32554 24.47761,-30.8757 c 13.46268,-16.98163 24.47761,-31.15925 24.47761,-31.50581 0,-0.34657 -2.46877,-3.53422 -5.48615,-7.08369 -3.01738,-3.54946 -5.49238,-6.81678 -5.5,-7.26072 -0.008,-0.44393 30.22397,-31.17214 67.18131,-68.2849 l 67.19515,-67.47774 8.57463,8.5349 c 4.71604,4.6942 9.02276,8.5349 9.57047,8.5349 0.54772,0 6.38061,-5.39882 12.96198,-11.99738 l 11.96612,-11.99738 -8.67351,-8.75262 -8.67351,-8.75262 5.89162,-6.5 5.89163,-6.5 26.29394,26.24619 26.29394,26.24619 -6.23837,6.23837 -6.23838,6.23837 -8.77282,-8.73217 -8.77282,-8.73218 -12.47154,12.50155 -12.47153,12.50155 8.74112,8.74113 8.74113,8.74112 -67.67543,67.68092 -67.67543,67.68091 -7.31949,-6.05447 c -5.27907,-4.3667 -7.66997,-5.77853 -8.57677,-5.0646 -0.69151,0.54443 -14.71607,11.63873 -31.16568,24.654 l -29.90839,23.66414 -2.37686,-2.23293 -2.37685,-2.23294 -25.58055,25.45743 c -24.93633,24.8163 -25.56575,25.35759 -24.9929,21.49339 z"
         id="path3015"
         inkscape:connector-curvature="0" />
      <path
         style="fill:#2f2f2f"
         d="m 219.28462,522.89815 c 0.52864,-3.5659 2.92126,-6.29921 23.82292,-27.21507 l 23.23526,-23.25106 -2.1846,-2.3254 -2.18461,-2.32541 24.47749,-30.85577 c 13.46261,-16.97067 24.47748,-31.14835 24.47748,-31.50595 0,-0.3576 -2.46835,-3.55428 -5.48521,-7.10375 -3.01687,-3.54946 -5.37816,-6.7947 -5.24731,-7.21164 0.13085,-0.41695 30.34408,-31.16301 67.14051,-68.32458 l 66.90259,-67.5665 8.61449,8.57458 c 4.73797,4.71602 9.06263,8.57458 9.61034,8.57458 0.54772,0 6.38061,-5.39882 12.96198,-11.99738 l 11.96612,-11.99738 -8.65839,-8.75262 -8.6584,-8.75262 5.90126,-6.5 5.90126,-6.5 26.26919,26.24619 26.26919,26.24619 -6.23837,6.23837 -6.23838,6.23837 -8.77282,-8.73217 -8.77282,-8.73218 -12.47154,12.50155 -12.47153,12.50155 8.74112,8.74113 8.74113,8.74112 -67.67543,67.68092 -67.67543,67.68091 -7.31949,-6.05447 c -5.27907,-4.3667 -7.66997,-5.77853 -8.57677,-5.0646 -0.69151,0.54443 -14.71607,11.63873 -31.16568,24.654 l -29.90839,23.66414 -2.37686,-2.23293 -2.37685,-2.23294 -25.58055,25.45743 c -24.93633,24.8163 -25.56575,25.35759 -24.9929,21.49339 z"
         id="path3013"
         inkscape:connector-curvature="0" />
      <path
         style="fill:#0c0c0c"
         d="m 219.28462,522.89815 c 0.52864,-3.5659 2.92126,-6.29921 23.82292,-27.21507 l 23.23526,-23.25106 -2.17219,-2.31219 -2.17219,-2.31219 24.46507,-30.87746 c 13.45579,-16.9826 24.46507,-31.19447 24.46507,-31.58194 0,-0.38746 -1.88531,-2.90534 -4.18959,-5.59527 -2.30427,-2.68993 -4.83692,-5.66493 -5.62811,-6.61109 -1.30928,-1.56574 4.61033,-7.83607 65.88314,-69.7865 l 67.32167,-68.06619 8.57623,8.5365 c 4.71692,4.69507 9.02436,8.53649 9.57207,8.53649 0.54772,0 6.38061,-5.39882 12.96198,-11.99738 l 11.96612,-11.99738 -8.65284,-8.75262 -8.65285,-8.75262 5.93014,-6.48857 5.93013,-6.48857 26.23477,26.23476 26.23476,26.23476 -6.23837,6.23837 -6.23838,6.23837 -8.77282,-8.73217 -8.77282,-8.73218 -12.46468,12.49468 -12.46469,12.49469 8.72358,8.76418 8.72357,8.76418 -67.7415,67.6889 -67.74151,67.6889 -6.93901,-5.95015 c -3.81646,-3.27258 -7.19146,-5.9485 -7.5,-5.94649 -0.30855,0.002 -14.47049,11.03781 -31.47099,24.524 l -30.90999,24.52035 -2.37525,-2.23143 -2.37525,-2.23143 -25.58055,25.45743 c -24.93633,24.8163 -25.56575,25.35759 -24.9929,21.49339 z"
         id="path3011"
         inkscape:connector-curvature="0" />
      <path
         style="fill:#000000"
         d="m 219.28462,522.89815 c 0.52864,-3.5659 2.92126,-6.29921 23.82292,-27.21507 l 23.23526,-23.25106 -2.16009,-2.29931 -2.16009,-2.29931 24.45297,-30.79636 c 13.44913,-16.938 24.45297,-31.18304 24.45297,-31.65563 0,-0.4726 -2.55504,-3.8523 -5.67788,-7.51045 l -5.67787,-6.65119 67.66727,-67.66727 67.66727,-67.66726 8.28149,8.23847 c 4.55482,4.53116 8.72913,8.23847 9.27624,8.23847 0.54711,0 6.3795,-5.39882 12.96087,-11.99738 l 11.96612,-11.99738 -8.73632,-8.77699 -8.73631,-8.77698 6.27157,-6.21583 6.27157,-6.21583 25.97439,25.9888 25.97438,25.9888 -6.23596,6.23596 -6.23596,6.23595 -9.00805,-8.96631 -9.00806,-8.96632 -11.99738,11.96612 c -6.59856,6.58137 -11.99738,12.4331 -11.99738,13.00384 0,0.57074 3.82936,4.84718 8.5097,9.50319 l 8.50969,8.46549 -67.67025,67.67574 -67.67024,67.67574 -7.02501,-5.91331 c -3.86375,-3.25231 -7.31957,-5.9133 -7.6796,-5.9133 -0.36003,0 -14.52763,11.03195 -31.48355,24.51545 l -30.82895,24.51545 -2.36614,-2.22287 -2.36614,-2.22288 -25.58055,25.45743 c -24.93633,24.8163 -25.56575,25.35759 -24.9929,21.49339 z"
         id="path3009"
         inkscape:connector-curvature="0" />
    </g>
  </g>
</svg>
