<?xml version="1.0" encoding="UTF-8" standalone="no"?>
<!-- Created with Inkscape (http://www.inkscape.org/) -->

<svg
   xmlns:dc="http://purl.org/dc/elements/1.1/"
   xmlns:cc="http://creativecommons.org/ns#"
   xmlns:rdf="http://www.w3.org/1999/02/22-rdf-syntax-ns#"
   xmlns:svg="http://www.w3.org/2000/svg"
   xmlns="http://www.w3.org/2000/svg"
   xmlns:sodipodi="http://sodipodi.sourceforge.net/DTD/sodipodi-0.dtd"
   xmlns:inkscape="http://www.inkscape.org/namespaces/inkscape"
   width="210.57001"
   height="311"
   id="svg2"
   version="1.1"
   inkscape:version="0.48.4 r9939"
   sodipodi:docname="Nouveau document 1">
  <defs
     id="defs4" />
  <sodipodi:namedview
     id="base"
     pagecolor="#ffffff"
     bordercolor="#666666"
     borderopacity="1.0"
     inkscape:pageopacity="0.0"
     inkscape:pageshadow="2"
     inkscape:zoom="0.49497475"
     inkscape:cx="308.66002"
     inkscape:cy="54.968893"
     inkscape:document-units="px"
     inkscape:current-layer="layer1"
     showgrid="false"
     inkscape:window-width="900"
     inkscape:window-height="571"
     inkscape:window-x="298"
     inkscape:window-y="77"
     inkscape:window-maximized="0" />
  <metadata
     id="metadata7">
    <rdf:RDF>
      <cc:Work
         rdf:about="">
        <dc:format>image/svg+xml</dc:format>
        <dc:type
           rdf:resource="http://purl.org/dc/dcmitype/StillImage" />
        <dc:title></dc:title>
      </cc:Work>
    </rdf:RDF>
  </metadata>
  <g
     inkscape:label="Calque 1"
     inkscape:groupmode="layer"
     id="layer1"
     transform="translate(0,-741.36218)">
    <g
       id="g2996"
       transform="translate(-269.67613,667.35714)">
      <path
         style="fill:#d0d0d0"
         d="m 370.5,371.02409 c 0,-13.71071 -0.0435,-13.98886 -2.25,-14.39062 -1.2375,-0.22532 -7.74542,-1.13933 -14.46204,-2.03114 -28.75515,-3.81801 -59.78315,-16.93955 -79.94989,-33.81032 l -4.16194,-3.48172 17.42243,-20.90262 c 9.58233,-11.49645 17.99047,-21.28584 18.68474,-21.75421 0.83286,-0.56185 4.05441,1.07175 9.46908,4.80164 14.56071,10.03012 35.77222,18.84385 50.49762,20.98259 l 4.75,0.6899 0,-20.36445 0,-20.36445 -9.75,-2.32024 c -32.38648,-7.70714 -56.05427,-19.45584 -67.03786,-33.27762 -8.72192,-10.97571 -12.51453,-23.045 -12.50527,-39.79579 0.0114,-20.57472 5.65037,-35.75517 18.32204,-49.32388 15.49729,-16.59435 35.38117,-25.20249 65.22109,-28.23557 l 5.75,-0.58446 0,-16.428043 0,-16.428044 7.97582,0 7.97582,0 0.27418,16.75 0.27418,16.749997 7.5,0.72296 c 10.4161,1.00406 26.08648,4.22579 35.54365,7.30754 10.82408,3.52719 28.49768,12.43626 36.78493,18.5429 l 6.82857,5.03178 -2.38571,3.19741 c -1.31213,1.75858 -8.79583,12.28502 -16.63043,23.39209 l -14.24473,20.19467 -6.19814,-4.01745 c -12.24338,-7.93578 -32.17277,-16.07005 -42.83918,-17.48499 l -4.85896,-0.64457 0,19.01262 0,19.01262 13.25,3.26653 c 23.38429,5.76495 40.82318,12.53695 52.81659,20.51016 19.42097,12.91103 29.05506,32.91465 27.49744,57.09397 -1.21725,18.89559 -6.98287,33.17021 -18.36183,45.46054 -14.95156,16.14907 -35.32283,25.1129 -63.82333,28.08373 l -11.37887,1.18611 0,13.81569 0,13.81569 -8,0 -8,0 0,-13.98095 z m 31.08443,-71.54884 c 14.7782,-5.21405 15.67839,-21.44894 1.58788,-28.63738 -4.09536,-2.0893 -14.25438,-5.83283 -15.82886,-5.83283 -0.4639,0 -0.84345,8.38696 -0.84345,18.63768 l 0,18.63768 5.3486,-0.62862 c 2.94173,-0.34574 7.32285,-1.32518 9.73583,-2.17653 z M 370.5,179.45973 l 0,-17.54531 -3.75,0.62952 c -10.08093,1.69231 -16.46654,5.96411 -18.17735,12.16016 -2.2527,8.15861 1.31116,14.12527 11.29472,18.90976 11.2699,5.40095 10.63263,6.24928 10.63263,-14.15413 z"
         id="path3010"
         inkscape:connector-curvature="0" />
      <path
         style="fill:#a9a9a9"
         d="m 370.5,371.02409 c 0,-16.16191 1.85965,-14.10617 -14.5,-16.0289 -29.32527,-3.44655 -61.31538,-16.76371 -82.16193,-34.20318 l -4.16194,-3.48172 17.42243,-20.90262 c 9.58233,-11.49645 17.99047,-21.28584 18.68474,-21.75421 0.83286,-0.56185 4.05441,1.07175 9.46908,4.80164 14.56071,10.03012 35.77222,18.84385 50.49762,20.98259 l 4.75,0.6899 0,-20.36445 0,-20.36445 -9.75,-2.31352 c -24.20169,-5.74268 -47.11629,-15.39554 -58.18709,-24.51151 -14.79092,-12.17923 -21.31018,-27.01889 -21.33685,-48.56862 -0.0173,-13.9505 1.81246,-22.31267 7.41984,-33.91017 3.25941,-6.74128 5.78159,-10.13415 12.71021,-17.09791 15.79793,-15.87804 34.19541,-23.58349 63.39389,-26.55137 l 5.75,-0.58446 0,-16.428043 0,-16.428044 7.97582,0 7.97582,0 0.27418,16.75 0.27418,16.749997 7.5,0.72296 c 10.49456,1.01163 26.14283,4.23967 35.54365,7.33222 10.99698,3.61764 28.6077,12.48057 36.78493,18.51272 l 6.82857,5.03728 -2.38571,3.19741 c -1.31213,1.75858 -8.79583,12.28502 -16.63043,23.39209 l -14.24473,20.19467 -6.19814,-4.01745 c -12.24338,-7.93578 -32.17277,-16.07005 -42.83918,-17.48499 l -4.85896,-0.64457 0,19.01262 0,19.01262 13.25,3.26653 c 23.38429,5.76495 40.82318,12.53695 52.81659,20.51016 19.42097,12.91103 29.05506,32.91465 27.49744,57.09397 -1.21725,18.89559 -6.98287,33.17021 -18.36183,45.46054 -14.95156,16.14907 -35.32283,25.1129 -63.82333,28.08373 l -11.37887,1.18611 0,13.81569 0,13.81569 -8,0 -8,0 0,-13.98095 z m 31.08443,-71.54884 c 14.7782,-5.21405 15.67839,-21.44894 1.58788,-28.63738 -4.09536,-2.0893 -14.25438,-5.83283 -15.82886,-5.83283 -0.4639,0 -0.84345,8.38696 -0.84345,18.63768 l 0,18.63768 5.3486,-0.62862 c 2.94173,-0.34574 7.32285,-1.32518 9.73583,-2.17653 z M 370.5,179.95973 l 0,-18.04531 -3.75,0.62952 c -6.71141,1.12666 -10.3605,2.61922 -13.81148,5.64923 -5.61771,4.93241 -6.53506,12.88392 -2.20232,19.0895 2.14598,3.07359 12.30907,8.62127 19.5138,10.65191 0.1375,0.0387 0.25,-8.04993 0.25,-17.97485 z"
         id="path3008"
         inkscape:connector-curvature="0" />
      <path
         style="fill:#707070"
         d="m 370.27746,370.75504 -0.27746,-14.25 -8.39288,-0.76018 c -31.33326,-2.838 -65.77094,-16.54996 -87.75516,-34.94124 l -4.14805,-3.47012 17.88826,-21.41097 c 9.83854,-11.77603 18.28179,-21.54214 18.76279,-21.70247 0.48099,-0.16034 4.5262,2.22393 8.98936,5.29837 14.47106,9.96837 35.71716,18.78588 50.40568,20.91926 l 4.75,0.6899 0,-20.36445 0,-20.36445 -9.75,-2.31352 c -24.02404,-5.70053 -47.20671,-15.43334 -57.89776,-24.3073 -15.15972,-12.58313 -21.59937,-27.10625 -21.62618,-48.77283 -0.0173,-13.9505 1.81246,-22.31267 7.41984,-33.91017 3.25941,-6.74128 5.78159,-10.13415 12.71021,-17.09791 9.12972,-9.17602 15.79043,-13.60056 28.27782,-18.78422 7.36247,-3.05625 23.17212,-6.55311 35.11607,-7.76715 l 5.75,-0.58446 0,-16.428043 0,-16.428044 8,0 8,0 0,16.531385 c 0,12.370402 0.31463,16.620122 1.25,16.883952 0.6875,0.19392 5.90965,0.88347 11.60477,1.53234 13.32432,1.5181 27.97118,5.2338 40.00339,10.14831 10.17394,4.1555 25.56277,12.9284 30.84228,17.58262 l 3.20044,2.82139 -16.52166,23.18216 -16.52166,23.18216 -6.17878,-4.00493 c -12.22421,-7.92342 -32.16091,-16.05853 -42.81982,-17.47248 l -4.85896,-0.64457 0,19.01262 0,19.01262 13.25,3.26653 c 48.1159,11.86205 70.9098,27.84891 78.36979,54.96589 2.57792,9.37071 2.34404,28.78698 -0.4734,39.30048 -2.89662,10.80902 -8.26324,20.50217 -15.94419,28.7983 -14.95156,16.14907 -35.32283,25.1129 -63.82333,28.08373 l -11.37887,1.18611 0,13.81569 0,13.81569 -7.97254,0 -7.97255,0 -0.27745,-14.25 z m 31.30697,-71.27979 c 14.7782,-5.21405 15.67839,-21.44894 1.58788,-28.63738 -4.09536,-2.0893 -14.25438,-5.83283 -15.82886,-5.83283 -0.4639,0 -0.84345,8.38696 -0.84345,18.63768 l 0,18.63768 5.3486,-0.62862 c 2.94173,-0.34574 7.32285,-1.32518 9.73583,-2.17653 z M 370.5,179.95973 l 0,-18.04531 -3.75,0.62952 c -10.17912,1.70879 -16.51561,5.99268 -18.1971,12.30245 -1.17346,4.40337 0.0121,10.46671 2.60828,13.33985 2.29266,2.53723 13.1177,8.06539 19.08882,9.74834 0.1375,0.0387 0.25,-8.04993 0.25,-17.97485 z"
         id="path3006"
         inkscape:connector-curvature="0" />
      <path
         style="fill:#505050"
         d="m 370.27746,370.75504 -0.27746,-14.25 -8.39288,-0.76018 c -31.33326,-2.838 -65.77094,-16.54996 -87.75516,-34.94124 l -4.14805,-3.47012 17.88826,-21.41097 c 9.83854,-11.77603 18.28179,-21.54214 18.76279,-21.70247 0.48099,-0.16034 4.5262,2.22393 8.98936,5.29837 14.47106,9.96837 35.71716,18.78588 50.40568,20.91926 l 4.75,0.6899 0,-20.36445 0,-20.36445 -9.75,-2.31352 c -24.40071,-5.7899 -47.62674,-15.60496 -58.1177,-24.55988 -15.30365,-13.06296 -21.39905,-26.89126 -21.3873,-48.52025 0.008,-13.98882 1.84958,-22.42862 7.4009,-33.91017 3.25941,-6.74128 5.78159,-10.13415 12.71021,-17.09791 9.12972,-9.17602 15.79043,-13.60056 28.27782,-18.78422 7.36247,-3.05625 23.17212,-6.55311 35.11607,-7.76715 l 5.75,-0.58446 0,-16.428043 0,-16.428044 8,0 8,0 0,16.531385 c 0,12.370402 0.31463,16.620122 1.25,16.883952 0.6875,0.19392 5.90965,0.88347 11.60477,1.53234 13.32432,1.5181 27.97118,5.2338 40.00339,10.14831 10.19592,4.16448 25.59314,12.94651 30.827,17.58262 l 3.18516,2.82139 -16.50498,23.18467 -16.50498,23.18466 -7.00392,-4.53082 c -11.76185,-7.6087 -31.43867,-15.55093 -41.99748,-16.9516 l -4.85896,-0.64457 0,19.01262 0,19.01262 13.25,3.26653 c 48.12087,11.86327 70.99902,27.91385 78.34722,54.96589 2.5701,9.46168 2.34965,28.89369 -0.44584,39.30048 -2.90544,10.81609 -8.27218,20.50643 -15.94918,28.7983 -14.95156,16.14907 -35.32283,25.1129 -63.82333,28.08373 l -11.37887,1.18611 0,13.81569 0,13.81569 -7.97254,0 -7.97255,0 -0.27745,-14.25 z m 30.49987,-70.79954 c 2.07754,-0.58276 5.31256,-2.40751 7.18895,-4.055 8.63647,-7.58292 6.38372,-19.3602 -4.79397,-25.06263 -4.09536,-2.0893 -14.25438,-5.83283 -15.82886,-5.83283 -0.4639,0 -0.84345,8.38696 -0.84345,18.63768 l 0,18.63768 5.25,-0.63266 c 2.8875,-0.34797 6.9498,-1.10947 9.02733,-1.69224 z M 370.10296,162.27467 c -0.96592,-0.96592 -11.66686,1.97404 -14.69933,4.03847 -5.38564,3.66639 -7.29519,7.05583 -7.2086,12.79524 0.11957,7.92642 3.46023,11.33682 16.16523,16.50267 L 370,197.90417 370.27366,180.3116 c 0.15051,-9.67592 0.0737,-17.79254 -0.1707,-18.03693 z"
         id="path3004"
         inkscape:connector-curvature="0" />
      <path
         style="fill:#2f2f2f"
         d="m 370.27746,370.75504 -0.27746,-14.25 -8.39288,-0.76018 c -31.3364,-2.83829 -65.77064,-16.54974 -87.76017,-34.94543 l -4.15305,-3.47429 17.92432,-21.41005 c 9.85837,-11.77553 18.30388,-21.53976 18.76779,-21.6983 0.46391,-0.15853 4.44806,2.19476 8.85366,5.22956 14.60655,10.0617 35.6823,18.84987 50.55397,21.08002 l 4.70636,0.70576 0,-20.41672 0,-20.41672 -9.75,-2.31352 c -24.40071,-5.7899 -47.62674,-15.60496 -58.1177,-24.55988 -15.2922,-13.05318 -21.38625,-26.86905 -21.40182,-48.52025 -0.01,-13.79468 1.8044,-22.03024 7.47052,-33.91017 3.24611,-6.806 5.65997,-10.06729 12.65511,-17.09791 9.12972,-9.17602 15.79043,-13.60056 28.27782,-18.78422 7.36247,-3.05625 23.17212,-6.55311 35.11607,-7.76715 l 5.75,-0.58446 0,-16.428043 0,-16.428044 7.97582,0 7.97582,0 0.27418,16.75 0.27418,16.749997 7.5,0.74209 c 17.02898,1.68492 35.41274,6.43739 49.70279,12.8489 8.06382,3.61799 21.64574,11.77187 25.98237,15.59846 l 3.18516,2.81055 -16.50498,23.18467 -16.50498,23.18466 -6.97435,-4.51169 c -3.83589,-2.48142 -10.25733,-6.00779 -14.26986,-7.83635 -9.29276,-4.23485 -25.74297,-9.52129 -29.62811,-9.52129 l -2.98804,0 0,18.85234 0,18.85234 14.75,3.76937 c 18.28998,4.67401 29.18645,8.45984 40.57482,14.09713 20.02507,9.91251 31.43879,22.63411 36.2724,40.42882 2.5701,9.46168 2.34965,28.89369 -0.44584,39.30048 -8.62352,32.10282 -37.14249,52.43836 -79.77251,56.88203 l -11.37887,1.18611 0,13.81569 0,13.81569 -7.97254,0 -7.97255,0 -0.27745,-14.25 z m 30.49987,-70.79954 c 2.07754,-0.58276 5.31256,-2.40751 7.18895,-4.055 8.63647,-7.58292 6.38372,-19.3602 -4.79397,-25.06263 -4.09536,-2.0893 -14.25438,-5.83283 -15.82886,-5.83283 -0.4639,0 -0.84345,8.38696 -0.84345,18.63768 l 0,18.63768 5.25,-0.63266 c 2.8875,-0.34797 6.9498,-1.10947 9.02733,-1.69224 z M 370.10296,162.27467 c -0.96592,-0.96592 -11.66686,1.97404 -14.69933,4.03847 -5.38564,3.66639 -7.29519,7.05583 -7.2086,12.79524 0.11957,7.92642 3.46023,11.33682 16.16523,16.50267 L 370,197.90417 370.27366,180.3116 c 0.15051,-9.67592 0.0737,-17.79254 -0.1707,-18.03693 z"
         id="path3002"
         inkscape:connector-curvature="0" />
      <path
         style="fill:#0a0a0a"
         d="m 370.27746,370.75504 -0.27746,-14.25 -8.39288,-0.76018 c -31.27308,-2.83255 -63.74543,-15.65701 -86.75698,-34.26334 l -5.14987,-4.16399 17.92113,-21.40625 c 9.85663,-11.77343 18.3007,-21.53595 18.76461,-21.69449 0.46391,-0.15853 4.44806,2.19476 8.85366,5.22956 14.60655,10.0617 35.6823,18.84987 50.55397,21.08002 l 4.70636,0.70576 0,-20.41672 0,-20.41672 -9.75,-2.31352 c -38.84757,-9.21792 -62.48881,-22.91364 -72.63778,-42.08013 -5.11291,-9.65582 -6.87209,-17.58034 -6.88174,-31 -0.01,-13.90667 1.82327,-22.15194 7.55963,-34 3.35533,-6.9302 5.7947,-10.18718 13.20849,-17.6356 8.14911,-8.18718 10.28225,-9.71612 20.54726,-14.72728 11.37332,-5.55222 22.68939,-8.93003 33.95414,-10.1352 3.025,-0.32364 7.4125,-0.82154 9.75,-1.10644 l 4.25,-0.51802 0,-16.43873 0,-16.438727 7.97582,0 7.97582,0 0.27418,16.75 0.27418,16.749997 7.5,0.74209 c 25.93183,2.5658 50.11105,10.93318 69.72288,24.12807 3.97259,2.67276 7.63429,5.37038 8.13712,5.99471 0.60978,0.75713 -4.57488,8.85003 -15.5693,24.30259 l -16.48354,23.16745 -7.12655,-4.61014 c -12.05121,-7.79589 -36.05855,-17.22477 -43.85684,-17.22477 l -2.82377,0 0,18.85234 0,18.85234 14.75,3.76937 c 47.74956,12.20243 69.55305,27.67282 76.84722,54.52595 2.5701,9.46168 2.34965,28.89369 -0.44584,39.30048 -8.62632,32.11324 -37.27001,52.5299 -79.73755,56.83534 l -11.41383,1.15715 0,13.85352 0,13.85351 -7.97254,0 -7.97255,0 -0.27745,-14.25 z m 30.49987,-70.79954 c 2.07754,-0.58276 5.31256,-2.40751 7.18895,-4.055 8.63647,-7.58292 6.38372,-19.3602 -4.79397,-25.06263 -4.09536,-2.0893 -14.25438,-5.83283 -15.82886,-5.83283 -0.4639,0 -0.84345,8.38696 -0.84345,18.63768 l 0,18.63768 5.25,-0.63266 c 2.8875,-0.34797 6.9498,-1.10947 9.02733,-1.69224 z M 370.10296,162.27467 c -0.96592,-0.96592 -11.66686,1.97404 -14.69933,4.03847 -5.38564,3.66639 -7.29519,7.05583 -7.2086,12.79524 0.11957,7.92642 3.46023,11.33682 16.16523,16.50267 L 370,197.90417 370.27366,180.3116 c 0.15051,-9.67592 0.0737,-17.79254 -0.1707,-18.03693 z"
         id="path3000"
         inkscape:connector-curvature="0" />
      <path
         style="fill:#000000"
         d="M 370.27746,370.77816 370,356.55128 l -10,-1.1174 c -22.67895,-2.53416 -40.80496,-7.95991 -60.63869,-18.15127 -9.93399,-5.10448 -27.87392,-17.52931 -28.55639,-19.77757 -0.22671,-0.74683 28.96984,-36.78655 34.78686,-42.94032 0.54326,-0.57472 3.71152,1.00892 8.14854,4.073 14.53454,10.03713 27.08081,15.78829 43.56426,19.96966 14.64226,3.71431 13.19542,5.67274 13.19542,-17.86127 l 0,-20.25894 -11.25,-2.85954 c -32.33193,-8.21817 -50.51562,-17.04128 -63.0723,-30.604 -8.86952,-9.58014 -13.12362,-19.48063 -14.61729,-34.01859 -3.7967,-36.95348 16.36313,-67.05633 53.32949,-79.6321 8.13185,-2.76642 21.14167,-5.36232 26.97057,-5.38155 9.10249,-0.03 8.63953,0.91325 8.63953,-17.602978 l 0,-16.383369 8,0 8,0 0,16.856224 0,16.856223 8.25,0.68586 c 18.21558,1.51435 37.64497,6.96816 54.01732,15.16261 8.09764,4.05291 18.92827,10.75138 22.8905,14.1572 1.50687,1.29526 0.18653,3.51038 -14.5,24.32656 -8.8868,12.59585 -16.44631,22.91365 -16.79891,22.92844 -0.3526,0.0148 -4.83363,-2.45056 -9.95784,-5.47855 -5.12421,-3.02799 -13.83572,-7.2557 -19.35891,-9.39492 -10.23417,-3.96386 -22.98446,-7.32401 -23.98704,-6.32143 -0.30532,0.30531 -0.55512,9.02154 -0.55512,19.36939 l 0,18.81429 2.75,0.61133 c 62.41922,13.87606 86.98465,32.68282 90.76834,69.49028 0.87602,8.5218 -0.91258,22.95443 -3.96148,31.96621 -9.91188,29.297 -38.03687,48.04006 -78.19618,52.11149 l -11.36068,1.15176 0,13.85352 0,13.85351 -7.97254,0 -7.97255,0 -0.27745,-14.22688 z m 32.13055,-71.35299 c 10.9082,-4.3646 14.42878,-16.82814 6.83159,-24.18513 -3.37073,-3.26415 -13.86447,-8.48393 -19.4896,-9.69449 l -3.25,-0.69942 0,18.72191 0,18.72191 5.92074,-0.61884 c 3.25641,-0.34036 7.75068,-1.35103 9.98727,-2.24594 z M 370.5,179.91714 l 0,-18.08789 -4.25,0.68735 c -13.29018,2.14943 -20.06831,9.77218 -17.77367,19.98844 1.17593,5.23547 6.1836,9.57429 14.83531,12.85382 3.6786,1.39442 6.80086,2.56025 6.93836,2.59074 0.1375,0.0305 0.25,-8.08411 0.25,-18.03246 z"
         id="path2998"
         inkscape:connector-curvature="0" />
    </g>
  </g>
</svg>
