<?xml version="1.0" encoding="UTF-8" standalone="no"?>
<!-- Created with Inkscape (http://www.inkscape.org/) -->

<svg
   xmlns:dc="http://purl.org/dc/elements/1.1/"
   xmlns:cc="http://creativecommons.org/ns#"
   xmlns:rdf="http://www.w3.org/1999/02/22-rdf-syntax-ns#"
   xmlns:svg="http://www.w3.org/2000/svg"
   xmlns="http://www.w3.org/2000/svg"
   xmlns:sodipodi="http://sodipodi.sourceforge.net/DTD/sodipodi-0.dtd"
   xmlns:inkscape="http://www.inkscape.org/namespaces/inkscape"
   width="117.53"
   height="311.07999"
   id="svg2"
   version="1.1"
   inkscape:version="0.48.4 r9939"
   sodipodi:docname="Nouveau document 1">
  <defs
     id="defs4" />
  <sodipodi:namedview
     id="base"
     pagecolor="#ffffff"
     bordercolor="#666666"
     borderopacity="1.0"
     inkscape:pageopacity="0.0"
     inkscape:pageshadow="2"
     inkscape:zoom="0.35"
     inkscape:cx="563.03968"
     inkscape:cy="543.61935"
     inkscape:document-units="px"
     inkscape:current-layer="layer1"
     showgrid="false"
     inkscape:window-width="838"
     inkscape:window-height="564"
     inkscape:window-x="374"
     inkscape:window-y="122"
     inkscape:window-maximized="0" />
  <metadata
     id="metadata7">
    <rdf:RDF>
      <cc:Work
         rdf:about="">
        <dc:format>image/svg+xml</dc:format>
        <dc:type
           rdf:resource="http://purl.org/dc/dcmitype/StillImage" />
        <dc:title></dc:title>
      </cc:Work>
    </rdf:RDF>
  </metadata>
  <g
     inkscape:label="Calque 1"
     inkscape:groupmode="layer"
     id="layer1"
     transform="translate(0,-741.28218)">
    <g
       id="g3007"
       transform="translate(-304.32885,584.11982)">
      <path
         style="fill:#a6a6a6"
         d="m 304.33783,467.33095 c -0.35054,-0.56719 9.60156,-20.02969 22.11579,-43.25 25.79082,-47.85521 23.93014,-42.14311 20.86687,-64.05923 -2.10321,-15.04743 -1.65074,-16.92387 4.52726,-18.77484 2.24544,-0.67275 5.12957,-2.19347 6.40919,-3.37938 l 2.32658,-2.1562 0.64794,-43.92454 c 0.35636,-24.1585 0.92665,-53.01295 1.2673,-64.12098 l 0.61937,-20.19644 -3.19203,-3.19203 c -2.25138,-2.25138 -2.87921,-3.50484 -2.13049,-4.25356 0.58385,-0.58385 1.06154,-2.09654 1.06154,-3.36154 0,-1.64057 0.57888,-2.3 2.01905,-2.3 1.63626,0 1.90395,-0.4586 1.41195,-2.41891 -0.49981,-1.99138 -0.19387,-2.47743 1.73094,-2.75 1.7111,-0.24231 2.26214,-0.88735 2.05495,-2.40549 -0.19174,-1.40494 0.52802,-2.44398 2.23029,-3.21958 1.69585,-0.77268 2.31492,-1.66239 1.90323,-2.73526 -0.4133,-1.07704 0.077,-1.76978 1.51971,-2.14705 1.42162,-0.37176 2.12988,-1.34953 2.12988,-2.94034 0,-1.7242 0.55841,-2.38337 2.01905,-2.38337 1.63626,0 1.90395,-0.4586 1.41195,-2.41891 -0.49981,-1.99138 -0.19387,-2.47743 1.73094,-2.75 1.77894,-0.25191 2.26324,-0.86915 2.0252,-2.58109 -0.22174,-1.5947 0.19636,-2.25 1.43555,-2.25 0.96162,0 2.74725,-0.93836 3.96805,-2.08524 3.07107,-2.88513 9.54756,-5.03394 11.15926,-3.7025 2.03838,1.68391 1.52829,3.06657 -4.38451,11.88467 -6.45019,9.61954 -8.03323,12.9948 -13.54948,28.88933 l -3.98634,11.48626 0.64576,56.51374 c 0.68976,60.36492 0.85413,62.27455 5.83256,67.76374 3.89233,4.29167 6.3288,3.14034 19.23011,-9.08708 6.57904,-6.2354 12.9744,-11.87623 14.2119,-12.53519 2.61714,-1.3936 6.25,0.007 6.25,2.40893 0,0.80646 -4.5,15.30177 -10,32.21179 -5.5,16.91002 -10,31.42588 -10,32.25746 0,0.83157 3.6,11.60087 8,23.93175 4.4,12.33089 8,23.38386 8,24.56215 0,2.25097 -6.79749,6.48567 -24.74223,15.41387 -23.12816,11.50716 -51.814,20.4075 -76.05899,23.59878 -13.42798,1.76748 -11.94071,1.71412 -12.7181,0.45628 z m 85.31932,-34.16874 c 3.39429,-3.39429 -0.59738,-9.04917 -4.8,-6.8 -3.52965,1.88901 -2.00191,8 2,8 0.88,0 2.14,-0.54 2.8,-1.2 z m 5,-14 c 3.39429,-3.39429 -0.59738,-9.04917 -4.8,-6.8 -3.52965,1.88901 -2.00191,8 2,8 0.88,0 2.14,-0.54 2.8,-1.2 z m 5.59402,-15.05 c 1.49912,-2.39421 -0.32897,-5.15796 -3.67762,-5.55993 -3.3257,-0.39922 -5.33025,2.79443 -3.68433,5.86986 1.33797,2.50001 5.71799,2.31562 7.36195,-0.30993 z M 364.85715,198.27888 c 0,-2.43705 -2.33677,-2.09257 -2.82332,0.4162 -0.19138,0.98676 0.31876,1.66713 1.25,1.66713 0.92763,0 1.57332,-0.855 1.57332,-2.08333 z m 4,-5.47569 c 0,-0.79254 -0.675,-1.44098 -1.5,-1.44098 -1.50623,0 -2.05568,2.11099 -0.86052,3.30615 0.93324,0.93324 2.36052,-0.19452 2.36052,-1.86517 z m 3.55385,-3.52811 c 1.03052,-1.66742 -1.28721,-3.57951 -2.66672,-2.2 -1.15392,1.15392 -0.43172,3.28713 1.11287,3.28713 0.48508,0 1.18431,-0.48921 1.55385,-1.08713 z m 3.74897,-6.39918 c 0.10845,-0.54246 -0.59032,-1.13796 -1.55282,-1.32332 -1.0946,-0.2108 -1.75,0.27967 -1.75,1.30963 0,1.73979 2.9553,1.75204 3.30282,0.0137 z m 3.50681,-5.26369 c -0.40593,-2.10784 -2.18068,-1.97493 -2.63295,0.19718 -0.18865,0.90598 0.36259,1.55282 1.32332,1.55282 1.02996,0 1.52043,-0.6554 1.30963,-1.75 z m 3.74422,-4.33713 c 1.03052,-1.66742 -1.28721,-3.57951 -2.66672,-2.2 -1.15392,1.15392 -0.43172,3.28713 1.11287,3.28713 0.48508,0 1.18431,-0.48921 1.55385,-1.08713 z m 4,-5 c 1.03052,-1.66742 -1.28721,-3.57951 -2.66672,-2.2 -1.15392,1.15392 -0.43172,3.28713 1.11287,3.28713 0.48508,0 1.18431,-0.48921 1.55385,-1.08713 z"
         id="path3019"
         inkscape:connector-curvature="0" />
      <path
         style="fill:#898989"
         d="m 304.35257,467.35481 c -0.36329,-0.58783 9.58605,-20.05171 22.10965,-43.25308 25.81987,-47.83419 23.93735,-42.05078 20.85827,-64.08001 -2.11689,-15.14531 -1.66178,-16.99044 4.60716,-18.67849 2.28767,-0.61601 5.17105,-2.13166 6.4075,-3.36811 2.24159,-2.24159 2.24998,-2.3754 2.89617,-46.18051 0.35644,-24.16282 0.92679,-53.02079 1.26744,-64.12883 l 0.61937,-20.19644 -3.19203,-3.19203 c -2.25138,-2.25138 -2.87921,-3.50484 -2.13049,-4.25356 0.58385,-0.58385 1.06154,-2.09654 1.06154,-3.36154 0,-1.64057 0.57888,-2.3 2.01905,-2.3 1.63626,0 1.90395,-0.4586 1.41195,-2.41891 -0.49981,-1.99138 -0.19387,-2.47743 1.73094,-2.75 1.7111,-0.24231 2.26214,-0.88735 2.05495,-2.40549 -0.19174,-1.40494 0.52802,-2.44398 2.23029,-3.21958 1.69585,-0.77268 2.31492,-1.66239 1.90323,-2.73526 -0.4133,-1.07704 0.077,-1.76978 1.51971,-2.14705 1.42162,-0.37176 2.12988,-1.34953 2.12988,-2.94034 0,-1.7242 0.55841,-2.38337 2.01905,-2.38337 1.63626,0 1.90395,-0.4586 1.41195,-2.41891 -0.49981,-1.99138 -0.19387,-2.47743 1.73094,-2.75 1.77894,-0.25191 2.26324,-0.86915 2.0252,-2.58109 -0.22174,-1.5947 0.19636,-2.25 1.43555,-2.25 0.96162,0 2.74725,-0.93836 3.96805,-2.08524 3.07107,-2.88513 9.54756,-5.03394 11.15926,-3.7025 2.01783,1.66694 1.50159,3.32805 -3.10461,9.98983 -7.10458,10.2751 -9.23632,14.60362 -14.14748,28.72665 l -4.66973,13.42874 0.6465,56.57126 c 0.69057,60.42696 0.85438,62.33152 5.83331,67.82126 3.93008,4.33329 6.403,3.16747 19.27944,-9.08906 6.55191,-6.23649 12.92507,-11.87732 14.16257,-12.53519 2.61756,-1.39152 6.25,0.01 6.25,2.41091 0,0.80646 -4.5,15.30177 -10,32.21179 -5.5,16.91002 -9.99816,31.42186 -9.9959,32.24852 0.002,0.82667 3.60041,11.62803 7.9959,24.00303 4.39549,12.375 7.99365,23.43198 7.9959,24.57108 0.004,2.16894 -7.02911,6.53181 -24.71569,15.33132 -22.61229,11.25016 -55.68414,21.53824 -75.78021,23.5739 -3.3,0.33428 -7.42741,0.82767 -9.17202,1.09642 -1.74461,0.26876 -3.46926,0.008 -3.83256,-0.58012 z m 85.30458,-34.1926 c 3.39429,-3.39429 -0.59738,-9.04917 -4.8,-6.8 -3.52965,1.88901 -2.00191,8 2,8 0.88,0 2.14,-0.54 2.8,-1.2 z m 5,-14 c 3.39429,-3.39429 -0.59738,-9.04917 -4.8,-6.8 -3.52965,1.88901 -2.00191,8 2,8 0.88,0 2.14,-0.54 2.8,-1.2 z m 5.59402,-15.05 c 1.49912,-2.39421 -0.32897,-5.15796 -3.67762,-5.55993 -3.3257,-0.39922 -5.33025,2.79443 -3.68433,5.86986 1.33797,2.50001 5.71799,2.31562 7.36195,-0.30993 z M 364.85715,198.27888 c 0,-2.43705 -2.33677,-2.09257 -2.82332,0.4162 -0.19138,0.98676 0.31876,1.66713 1.25,1.66713 0.92763,0 1.57332,-0.855 1.57332,-2.08333 z m 4,-5.47569 c 0,-0.79254 -0.675,-1.44098 -1.5,-1.44098 -1.50623,0 -2.05568,2.11099 -0.86052,3.30615 0.93324,0.93324 2.36052,-0.19452 2.36052,-1.86517 z m 3.55385,-3.52811 c 1.03052,-1.66742 -1.28721,-3.57951 -2.66672,-2.2 -1.15392,1.15392 -0.43172,3.28713 1.11287,3.28713 0.48508,0 1.18431,-0.48921 1.55385,-1.08713 z m 3.74897,-6.39918 c 0.10845,-0.54246 -0.59032,-1.13796 -1.55282,-1.32332 -1.0946,-0.2108 -1.75,0.27967 -1.75,1.30963 0,1.73979 2.9553,1.75204 3.30282,0.0137 z m 3.50681,-5.26369 c -0.40593,-2.10784 -2.18068,-1.97493 -2.63295,0.19718 -0.18865,0.90598 0.36259,1.55282 1.32332,1.55282 1.02996,0 1.52043,-0.6554 1.30963,-1.75 z m 3.74422,-4.33713 c 1.03052,-1.66742 -1.28721,-3.57951 -2.66672,-2.2 -1.15392,1.15392 -0.43172,3.28713 1.11287,3.28713 0.48508,0 1.18431,-0.48921 1.55385,-1.08713 z m 4,-5 c 1.03052,-1.66742 -1.28721,-3.57951 -2.66672,-2.2 -1.15392,1.15392 -0.43172,3.28713 1.11287,3.28713 0.48508,0 1.18431,-0.48921 1.55385,-1.08713 z"
         id="path3017"
         inkscape:connector-curvature="0" />
      <path
         style="fill:#585858"
         d="m 304.37446,467.39022 c -0.35126,-0.56835 9.59801,-20.03688 22.10949,-43.2634 25.78997,-47.87696 23.91225,-42.09999 20.83654,-64.1051 -2.11689,-15.14531 -1.66178,-16.99044 4.60716,-18.67849 2.28767,-0.61601 5.17105,-2.13166 6.4075,-3.36811 2.24159,-2.24159 2.24998,-2.3754 2.89617,-46.18051 0.35644,-24.16282 0.92679,-53.02079 1.26744,-64.12883 l 0.61937,-20.19644 -3.19203,-3.19203 c -2.25138,-2.25138 -2.87921,-3.50484 -2.13049,-4.25356 0.58385,-0.58385 1.06154,-2.09654 1.06154,-3.36154 0,-1.64057 0.57888,-2.3 2.01905,-2.3 1.63626,0 1.90395,-0.4586 1.41195,-2.41891 -0.49981,-1.99138 -0.19387,-2.47743 1.73094,-2.75 1.77894,-0.25191 2.26324,-0.86915 2.0252,-2.58109 -0.28153,-2.02468 0.65472,-2.74865 3.06286,-2.36842 0.77991,0.12314 1.11673,-1.4252 0.80685,-3.70908 -0.0991,-0.73013 0.74762,-1.57011 1.88152,-1.86663 1.3547,-0.35427 2.06163,-1.35639 2.06163,-2.9225 0,-1.7242 0.55841,-2.38337 2.01905,-2.38337 1.63626,0 1.90395,-0.4586 1.41195,-2.41891 -0.49981,-1.99138 -0.19387,-2.47743 1.73094,-2.75 1.77894,-0.25191 2.26324,-0.86915 2.0252,-2.58109 -0.23032,-1.65644 0.19045,-2.25 1.59501,-2.25 1.04933,0 2.68515,-0.85888 3.63516,-1.90862 3.72195,-4.11272 11.72148,-5.38071 12.37273,-1.96118 0.17075,0.89661 -1.67172,4.49661 -4.09439,8 -7.15741,10.35022 -9.27852,14.65235 -14.19527,28.79148 l -4.66726,13.42168 0.64758,57.07832 c 0.69334,61.11188 0.72739,61.50192 5.87865,67.32832 3.85625,4.36167 6.37651,3.17151 19.35235,-9.13888 6.60248,-6.26388 12.96836,-11.90471 14.1464,-12.53518 2.51996,-1.34864 6.1419,0.1074 6.1419,2.46907 0,0.81105 -4.5,15.28009 -10,32.15342 -5.5,16.87333 -10,31.41348 -10,32.31145 0,0.89796 3.6,11.72157 8,24.05246 4.4,12.33088 8,23.3558 8,24.4998 0,2.1788 -7.0119,6.53015 -24.71979,15.34026 -22.61229,11.25016 -55.68414,21.53824 -75.78021,23.5739 -3.3,0.33428 -7.42741,0.82767 -9.17202,1.09642 -1.74461,0.26876 -3.45941,0.0236 -3.81067,-0.54471 z m 85.28269,-34.22801 c 3.39429,-3.39429 -0.59738,-9.04917 -4.8,-6.8 -3.52965,1.88901 -2.00191,8 2,8 0.88,0 2.14,-0.54 2.8,-1.2 z m 5,-14 c 3.39429,-3.39429 -0.59738,-9.04917 -4.8,-6.8 -3.52965,1.88901 -2.00191,8 2,8 0.88,0 2.14,-0.54 2.8,-1.2 z m 5.59402,-15.05 c 1.49912,-2.39421 -0.32897,-5.15796 -3.67762,-5.55993 -3.3257,-0.39922 -5.33025,2.79443 -3.68433,5.86986 1.33797,2.50001 5.71799,2.31562 7.36195,-0.30993 z M 364.85715,198.27888 c 0,-2.43705 -2.33677,-2.09257 -2.82332,0.4162 -0.19138,0.98676 0.31876,1.66713 1.25,1.66713 0.92763,0 1.57332,-0.855 1.57332,-2.08333 z m 4,-5.47569 c 0,-0.79254 -0.675,-1.44098 -1.5,-1.44098 -1.50623,0 -2.05568,2.11099 -0.86052,3.30615 0.93324,0.93324 2.36052,-0.19452 2.36052,-1.86517 z m 3.55385,-3.52811 c 1.03052,-1.66742 -1.28721,-3.57951 -2.66672,-2.2 -1.15392,1.15392 -0.43172,3.28713 1.11287,3.28713 0.48508,0 1.18431,-0.48921 1.55385,-1.08713 z m 3.74897,-6.39918 c 0.10845,-0.54246 -0.59032,-1.13796 -1.55282,-1.32332 -1.0946,-0.2108 -1.75,0.27967 -1.75,1.30963 0,1.73979 2.9553,1.75204 3.30282,0.0137 z m 3.50681,-5.26369 c -0.40593,-2.10784 -2.18068,-1.97493 -2.63295,0.19718 -0.18865,0.90598 0.36259,1.55282 1.32332,1.55282 1.02996,0 1.52043,-0.6554 1.30963,-1.75 z m 3.74422,-4.33713 c 1.03052,-1.66742 -1.28721,-3.57951 -2.66672,-2.2 -1.15392,1.15392 -0.43172,3.28713 1.11287,3.28713 0.48508,0 1.18431,-0.48921 1.55385,-1.08713 z m 4,-5 c 1.03052,-1.66742 -1.28721,-3.57951 -2.66672,-2.2 -1.15392,1.15392 -0.43172,3.28713 1.11287,3.28713 0.48508,0 1.18431,-0.48921 1.55385,-1.08713 z"
         id="path3015"
         inkscape:connector-curvature="0" />
      <path
         style="fill:#2d2d2d"
         d="m 304.37321,467.3882 c -0.35194,-0.56946 9.34073,-19.55773 21.53928,-42.19616 12.19855,-22.63842 22.54203,-42.42593 22.9855,-43.97223 0.49698,-1.73288 0.0316,-8.8212 -1.21299,-18.47673 -2.35507,-18.27009 -2.07166,-19.69959 4.24265,-21.39985 2.28767,-0.61601 5.23268,-2.19329 6.54445,-3.50506 2.27183,-2.27183 2.38601,-3.01619 2.40517,-15.68051 0.0111,-7.3125 0.46931,-36.24545 1.01833,-64.29545 l 0.99822,-51 -3.1314,-2.83693 c -2.29967,-2.08341 -2.83577,-3.13257 -2.01834,-3.95 0.61219,-0.61219 1.11307,-2.14807 1.11307,-3.41307 0,-1.64057 0.57888,-2.3 2.01905,-2.3 1.63626,0 1.90395,-0.4586 1.41195,-2.41891 -0.49981,-1.99138 -0.19387,-2.47743 1.73094,-2.75 1.77894,-0.25191 2.26324,-0.86915 2.0252,-2.58109 -0.28153,-2.02468 0.65472,-2.74865 3.06286,-2.36842 0.77991,0.12314 1.11673,-1.4252 0.80685,-3.70908 -0.0991,-0.73013 0.74762,-1.57011 1.88152,-1.86663 1.3547,-0.35427 2.06163,-1.35639 2.06163,-2.9225 0,-1.7242 0.55841,-2.38337 2.01905,-2.38337 1.63626,0 1.90395,-0.4586 1.41195,-2.41891 -0.49981,-1.99138 -0.19387,-2.47743 1.73094,-2.75 1.77894,-0.25191 2.26324,-0.86915 2.0252,-2.58109 -0.23032,-1.65644 0.19045,-2.25 1.59501,-2.25 1.04933,0 2.68515,-0.85888 3.63516,-1.90862 3.72195,-4.11272 11.72148,-5.38071 12.37273,-1.96118 0.17075,0.89661 -1.67172,4.49661 -4.09439,8 -7.15741,10.35022 -9.27852,14.65235 -14.19527,28.79148 l -4.66726,13.42168 0.64758,57.07832 c 0.69334,61.11188 0.72739,61.50192 5.87865,67.32832 3.85625,4.36167 6.37651,3.17151 19.35235,-9.13888 6.60248,-6.26388 12.96836,-11.90471 14.1464,-12.53518 2.47877,-1.32659 6.1419,0.0941 6.1419,2.38211 0,0.76322 -4.5,15.24928 -10,32.19123 -5.5,16.94196 -10,31.52124 -10,32.39841 0,0.87717 3.6,11.68376 8,24.01465 4.4,12.33088 7.99853,23.32381 7.99674,24.42873 -0.003,2.12235 -8.07742,7.15953 -24.71653,15.42011 -22.69576,11.26744 -55.70194,21.53127 -75.78021,23.56512 -3.3,0.33428 -7.42741,0.82767 -9.17202,1.09642 -1.74461,0.26876 -3.45997,0.0227 -3.81192,-0.54673 z m 85.28394,-34.22599 c 3.39429,-3.39429 -0.59738,-9.04917 -4.8,-6.8 -3.52965,1.88901 -2.00191,8 2,8 0.88,0 2.14,-0.54 2.8,-1.2 z m 5,-14 c 3.39429,-3.39429 -0.59738,-9.04917 -4.8,-6.8 -3.52965,1.88901 -2.00191,8 2,8 0.88,0 2.14,-0.54 2.8,-1.2 z m 5.59402,-15.05 c 1.49912,-2.39421 -0.32897,-5.15796 -3.67762,-5.55993 -3.3257,-0.39922 -5.33025,2.79443 -3.68433,5.86986 1.33797,2.50001 5.71799,2.31562 7.36195,-0.30993 z M 365.23215,199.56446 c 0.79065,-1.27929 -1.04345,-3.52519 -2.2632,-2.77135 -1.60541,0.9922 -1.36774,3.5691 0.32918,3.5691 0.79254,0 1.66285,-0.35899 1.93402,-0.79775 z m 3.625,-6.76127 c 0,-0.79254 -0.675,-1.44098 -1.5,-1.44098 -1.50623,0 -2.05568,2.11099 -0.86052,3.30615 0.93324,0.93324 2.36052,-0.19452 2.36052,-1.86517 z m 3.55385,-3.52811 c 1.03052,-1.66742 -1.28721,-3.57951 -2.66672,-2.2 -1.15392,1.15392 -0.43172,3.28713 1.11287,3.28713 0.48508,0 1.18431,-0.48921 1.55385,-1.08713 z m 3.74897,-6.39917 c 0.10845,-0.54247 -0.59032,-1.13797 -1.55282,-1.32333 -1.0946,-0.2108 -1.75,0.27967 -1.75,1.30963 0,1.73979 2.9553,1.75204 3.30282,0.0137 z m 3.50681,-5.2637 c -0.40593,-2.10784 -2.18068,-1.97493 -2.63295,0.19718 -0.18865,0.90598 0.36259,1.55282 1.32332,1.55282 1.02996,0 1.52043,-0.6554 1.30963,-1.75 z m 3.74422,-4.33713 c 1.03052,-1.66742 -1.28721,-3.57951 -2.66672,-2.2 -1.15392,1.15392 -0.43172,3.28713 1.11287,3.28713 0.48508,0 1.18431,-0.48921 1.55385,-1.08713 z m 3.94615,-5.98251 c 0,-0.77163 -0.7875,-1.55463 -1.75,-1.73999 -1.72374,-0.33196 -2.43634,1.78995 -1.0625,3.1638 1.04821,1.0482 2.8125,0.15505 2.8125,-1.42381 z"
         id="path3013"
         inkscape:connector-curvature="0" />
      <path
         style="fill:#0b0b0b"
         d="m 304.37321,467.3882 c -0.35194,-0.56946 9.34073,-19.55773 21.53928,-42.19616 12.19855,-22.63842 22.54411,-42.4332 22.99013,-43.98838 0.50184,-1.74981 0.0469,-8.80891 -1.19351,-18.51946 -2.33254,-18.26015 -2.05761,-19.65098 4.21854,-21.34097 2.28767,-0.61601 5.23268,-2.19329 6.54445,-3.50506 2.27183,-2.27183 2.38601,-3.01619 2.40517,-15.68051 0.0111,-7.3125 0.46931,-36.24545 1.01833,-64.29545 l 0.99822,-51 -3.1314,-2.83693 c -2.29967,-2.08341 -2.83577,-3.13257 -2.01834,-3.95 0.61219,-0.61219 1.11307,-2.14807 1.11307,-3.41307 0,-1.64057 0.57888,-2.3 2.01905,-2.3 1.63626,0 1.90395,-0.4586 1.41195,-2.41891 -0.49981,-1.99138 -0.19387,-2.47743 1.73094,-2.75 1.77894,-0.25191 2.26324,-0.86915 2.0252,-2.58109 -0.23739,-1.70729 0.18471,-2.25 1.75,-2.25 1.97883,0 2.50911,-0.95751 2.11971,-3.8275 -0.0991,-0.73013 0.74762,-1.57011 1.88152,-1.86663 1.3547,-0.35427 2.06163,-1.35639 2.06163,-2.9225 0,-1.7242 0.55841,-2.38337 2.01905,-2.38337 1.63626,0 1.90395,-0.4586 1.41195,-2.41891 -0.49981,-1.99138 -0.19387,-2.47743 1.73094,-2.75 1.77894,-0.25191 2.26324,-0.86915 2.0252,-2.58109 -0.2319,-1.66779 0.18924,-2.25 1.62756,-2.25 1.06722,0 2.52524,-0.70467 3.24002,-1.56594 1.89831,-2.28732 6.46237,-4.43406 9.427,-4.43406 2.80503,0 4.40464,2.48015 2.92743,4.5389 -9.60103,13.38074 -13.50145,21.01193 -18.87352,36.92608 l -3.7014,10.96498 0.65708,57.03502 c 0.62712,54.43402 0.75075,57.26229 2.71115,62.01857 4.5136,10.9508 7.40994,10.45253 22.50924,-3.87243 6.60248,-6.26388 12.96836,-11.90471 14.1464,-12.53518 2.47877,-1.32659 6.1419,0.0941 6.1419,2.38211 0,0.76322 -4.5,15.24928 -10,32.19123 -5.5,16.94196 -10,31.52124 -10,32.39841 0,0.87717 3.6,11.68376 8,24.01465 4.4,12.33088 7.99853,23.32381 7.99674,24.42873 -0.003,2.12235 -8.07742,7.15953 -24.71653,15.42011 -22.69576,11.26744 -55.70194,21.53127 -75.78021,23.56512 -3.3,0.33428 -7.42741,0.82767 -9.17202,1.09642 -1.74461,0.26876 -3.45997,0.0227 -3.81192,-0.54673 z m 85.28394,-34.22599 c 3.39429,-3.39429 -0.59738,-9.04917 -4.8,-6.8 -3.52965,1.88901 -2.00191,8 2,8 0.88,0 2.14,-0.54 2.8,-1.2 z m 5,-14 c 3.47769,-3.47769 -1.51434,-9.94182 -5.27039,-6.82458 -2.98313,2.47578 -1.27492,8.02458 2.47039,8.02458 0.88,0 2.14,-0.54 2.8,-1.2 z m 5.59402,-15.05 c 1.49912,-2.39421 -0.32897,-5.15796 -3.67762,-5.55993 -3.3257,-0.39922 -5.33025,2.79443 -3.68433,5.86986 1.33797,2.50001 5.71799,2.31562 7.36195,-0.30993 z M 365.23215,199.56446 c 0.79065,-1.27929 -1.04345,-3.52519 -2.2632,-2.77135 -1.60541,0.9922 -1.36774,3.5691 0.32918,3.5691 0.79254,0 1.66285,-0.35899 1.93402,-0.79775 z m 3.625,-6.76127 c 0,-0.79254 -0.675,-1.44098 -1.5,-1.44098 -1.50623,0 -2.05568,2.11099 -0.86052,3.30615 0.93324,0.93324 2.36052,-0.19452 2.36052,-1.86517 z m 3.55385,-3.52811 c 1.03052,-1.66742 -1.28721,-3.57951 -2.66672,-2.2 -1.15392,1.15392 -0.43172,3.28713 1.11287,3.28713 0.48508,0 1.18431,-0.48921 1.55385,-1.08713 z m 3.74897,-6.39917 c 0.10845,-0.54247 -0.59032,-1.13797 -1.55282,-1.32333 -1.0946,-0.2108 -1.75,0.27967 -1.75,1.30963 0,1.73979 2.9553,1.75204 3.30282,0.0137 z m 3.50681,-5.2637 c -0.40593,-2.10784 -2.18068,-1.97493 -2.63295,0.19718 -0.18865,0.90598 0.36259,1.55282 1.32332,1.55282 1.02996,0 1.52043,-0.6554 1.30963,-1.75 z m 3.74422,-4.33713 c 1.03052,-1.66742 -1.28721,-3.57951 -2.66672,-2.2 -1.15392,1.15392 -0.43172,3.28713 1.11287,3.28713 0.48508,0 1.18431,-0.48921 1.55385,-1.08713 z m 3.94615,-5.98251 c 0,-0.77163 -0.7875,-1.55463 -1.75,-1.73999 -1.72374,-0.33196 -2.43634,1.78995 -1.0625,3.1638 1.04821,1.0482 2.8125,0.15505 2.8125,-1.42381 z"
         id="path3011"
         inkscape:connector-curvature="0" />
      <path
         style="fill:#000000"
         d="m 304.92604,467.40478 c -0.91542,-0.56576 4.97536,-12.35536 21.56423,-43.15789 25.99328,-48.26482 24.15854,-42.57683 20.88844,-64.75754 -0.92219,-6.25508 -1.42185,-12.38826 -1.11037,-13.6293 0.399,-1.58976 2.21599,-2.92598 6.14983,-4.52261 3.07093,-1.2464 6.18169,-3.21321 6.9128,-4.3707 1.03808,-1.64347 1.57311,-16.11031 2.44221,-66.0347 l 1.11292,-63.93017 -2.48781,-2.59672 c -2.06093,-2.15114 -2.38414,-3.23557 -1.88363,-6.31983 0.45564,-2.80779 1.08027,-3.72311 2.54072,-3.72311 1.48122,0 1.78735,-0.47006 1.30202,-1.99922 -0.48764,-1.5364 -0.0247,-2.23109 1.99975,-3.00078 1.98212,-0.7536 2.48311,-1.47786 2.02364,-2.92552 -0.46692,-1.47114 -0.0708,-2.00129 1.68286,-2.25246 1.73721,-0.24882 2.23175,-0.89586 2.03891,-2.66768 -0.17708,-1.62709 0.35565,-2.49876 1.75,-2.86339 1.15338,-0.30161 2.00459,-1.36371 2.00459,-2.5012 0,-1.1451 0.85337,-2.20015 2.02804,-2.50733 1.44404,-0.37763 1.85665,-1.07036 1.43286,-2.40561 -0.44124,-1.39022 0.0862,-2.13431 2.0391,-2.87681 2.02444,-0.76969 2.48739,-1.46438 1.99975,-3.00078 -0.45123,-1.4217 -0.17925,-1.99922 0.94152,-1.99922 0.86683,0 3.46905,-1.37128 5.78272,-3.0473 2.93568,-2.12659 5.12109,-2.95747 7.23315,-2.75 4.23999,0.41651 4.29829,2.79033 0.20037,8.15889 -5.87812,7.70076 -11.27189,18.60168 -15.65467,31.63841 l -4.20234,12.5 0.71221,57.5 c 0.70855,57.20455 0.72409,57.52628 3.02395,62.61392 1.27146,2.81266 3.05766,5.40016 3.96933,5.75 4.48254,1.72012 6.45228,0.54164 18.99401,-11.36392 10.10611,-9.59348 13.21517,-12 15.50322,-12 1.85987,0 3.05873,0.61982 3.42383,1.77014 0.309,0.97358 -3.93568,15.59792 -9.43262,32.49853 -5.49693,16.90061 -9.99443,31.58164 -9.99443,32.62451 0,1.04287 3.6,12.03285 8,24.42219 4.4,12.38933 8,23.24665 8,24.12737 0,2.21 -6.89163,6.4498 -24.5,15.07268 -28.00347,13.71338 -53.65417,21.32103 -84.08582,24.93871 -1.6972,0.20177 -3.65258,0.0166 -4.34529,-0.41156 z m 84.88543,-34.48753 c 2.84426,-3.42712 -1.07853,-9.22068 -4.70432,-6.9478 -3.56834,2.23687 -2.28475,8.39276 1.75,8.39276 0.96531,0 2.29475,-0.65023 2.95432,-1.44496 z m 5,-14 c 2.84426,-3.42712 -1.07853,-9.22068 -4.70432,-6.9478 -3.56834,2.23687 -2.28475,8.39276 1.75,8.39276 0.96531,0 2.29475,-0.65023 2.95432,-1.44496 z m 5.0349,-14.04205 c 0.70782,-0.85288 0.96514,-2.55869 0.60339,-4 -0.48961,-1.9508 -1.2702,-2.51299 -3.48922,-2.51299 -3.9472,0 -5.7362,2.31573 -4.27185,5.52961 1.28756,2.82589 5.18423,3.36125 7.15768,0.98338 z M 365.35715,198.36221 c 0,-0.80994 -0.7875,-1.62427 -1.75,-1.80963 -1.22785,-0.23646 -1.75,0.30348 -1.75,1.80963 0,1.50615 0.52215,2.04609 1.75,1.80963 0.9625,-0.18536 1.75,-0.9997 1.75,-1.80963 z m 3.5,-5 c 0,-1.11111 -0.66667,-2 -1.5,-2 -0.83333,0 -1.5,0.88889 -1.5,2 0,1.11111 0.66667,2 1.5,2 0.83333,0 1.5,-0.88889 1.5,-2 z m 3.5,-5.06964 c 0,-0.77163 -0.7875,-1.55463 -1.75,-1.73999 -1.72374,-0.33196 -2.43634,1.78995 -1.0625,3.1638 1.04821,1.0482 2.8125,0.15504 2.8125,-1.42381 z m 3.92997,-6.04367 c -0.85211,-1.37874 -3.42997,-1.04306 -3.42997,0.44664 0,0.73334 0.2961,1.62943 0.65799,1.99133 0.90433,0.90433 3.45253,-1.33682 2.77198,-2.43797 z m 3.57003,-4.32767 c 0,-2.05411 -2.07025,-3.06338 -3.04582,-1.48488 -0.45222,0.7317 -0.60035,1.68935 -0.32918,2.12811 0.84042,1.35984 3.375,0.87678 3.375,-0.64323 z m 4,-5.55902 c 0,-2.07031 -2.41251,-2.75959 -3.5,-1 -0.83704,1.35436 0.29243,3 2.05902,3 0.79254,0 1.44098,-0.9 1.44098,-2 z m 3.82332,-5.33287 c 0.21801,-1.12408 -0.35203,-1.66713 -1.75,-1.66713 -1.14032,0 -2.07332,0.6 -2.07332,1.33333 0,3.06275 3.23922,3.34555 3.82332,0.3338 z"
         id="path3009"
         inkscape:connector-curvature="0" />
    </g>
  </g>
</svg>
