<?xml version="1.0" encoding="UTF-8" standalone="no"?>
<!-- Created with Inkscape (http://www.inkscape.org/) -->

<svg
   xmlns:dc="http://purl.org/dc/elements/1.1/"
   xmlns:cc="http://creativecommons.org/ns#"
   xmlns:rdf="http://www.w3.org/1999/02/22-rdf-syntax-ns#"
   xmlns:svg="http://www.w3.org/2000/svg"
   xmlns="http://www.w3.org/2000/svg"
   xmlns:sodipodi="http://sodipodi.sourceforge.net/DTD/sodipodi-0.dtd"
   xmlns:inkscape="http://www.inkscape.org/namespaces/inkscape"
   width="310.57999"
   height="212.17999"
   id="svg2"
   version="1.1"
   inkscape:version="0.48.4 r9939"
   sodipodi:docname="Nouveau document 1">
  <defs
     id="defs4" />
  <sodipodi:namedview
     id="base"
     pagecolor="#ffffff"
     bordercolor="#666666"
     borderopacity="1.0"
     inkscape:pageopacity="0.0"
     inkscape:pageshadow="2"
     inkscape:zoom="0.35"
     inkscape:cx="308.20881"
     inkscape:cy="403.48803"
     inkscape:document-units="px"
     inkscape:current-layer="layer1"
     showgrid="false"
     inkscape:window-width="848"
     inkscape:window-height="574"
     inkscape:window-x="401"
     inkscape:window-y="144"
     inkscape:window-maximized="0" />
  <metadata
     id="metadata7">
    <rdf:RDF>
      <cc:Work
         rdf:about="">
        <dc:format>image/svg+xml</dc:format>
        <dc:type
           rdf:resource="http://purl.org/dc/dcmitype/StillImage" />
        <dc:title></dc:title>
      </cc:Work>
    </rdf:RDF>
  </metadata>
  <g
     inkscape:label="Calque 1"
     inkscape:groupmode="layer"
     id="layer1"
     transform="translate(0,-840.18218)">
    <g
       id="g2996"
       transform="translate(-176.35675,705.32963)">
      <path
         style="fill:#d0d0d0"
         d="m 189.32482,345.5564 c -20.8895,-9.44437 -15.74881,-91.89717 9.7201,-155.90299 4.55152,-11.43841 10.29976,-23.09682 15.89655,-32.24088 2.59675,-4.24259 3.98709,-7.70343 3.98709,-9.92467 0,-3.21572 0.31254,-3.52748 5.47124,-5.45759 12.14554,-4.54424 43.52876,-9.04649 43.52876,-6.24467 0,0.63141 0.63109,1.14802 1.40242,1.14802 0.77133,0 8.08383,3.37134 16.25,7.49187 17.5944,8.87787 20.48556,9.46851 46.34758,9.46851 25.6841,0 28.71865,-0.62091 46.37579,-9.4891 8.18169,-4.1092 15.49419,-7.47128 16.25,-7.47128 0.75582,0 1.37421,-0.51661 1.37421,-1.14802 0,-2.80182 31.38322,1.70043 43.52876,6.24467 5.19549,1.94388 5.47124,2.22335 5.47124,5.54517 0,2.40269 1.46326,5.90309 4.67276,11.17815 14.96948,24.60349 28.51504,64.72323 34.4076,101.9097 3.0827,19.45414 3.83671,52.62885 1.46316,64.37612 -3.27266,16.19721 -8.40946,21.88957 -19.75601,21.89266 -12.23722,0.003 -22.52816,-6.4773 -46.77472,-29.45592 -16.12701,-15.28368 -23.61745,-21.25208 -32.50614,-25.90098 l -6.00665,-3.14155 -48.5,0 -48.5,0 -5.60816,2.75552 c -8.01531,3.93825 -16.46746,10.62386 -31.89184,25.22629 -25.46638,24.1093 -34.20132,29.79599 -46.5,30.27281 -4.41699,0.17125 -8.14529,-0.2464 -10.10374,-1.13184 z M 338.9087,208.68362 c 6.9831,-3.56772 10.35055,-8.5796 10.83066,-16.1196 0.60599,-9.51692 -3.61929,-16.5633 -12.04233,-20.08267 -13.57891,-5.67363 -29.93135,7.10958 -27.2664,21.31498 2.63725,14.05777 16.21198,21.15414 28.47807,14.88729 z"
         id="path3008"
         inkscape:connector-curvature="0" />
      <path
         style="fill:#9d9d9d"
         d="m 189.32482,345.5564 c -20.8895,-9.44437 -15.74881,-91.89717 9.7201,-155.90299 4.55152,-11.43841 10.29976,-23.09682 15.89655,-32.24088 2.59675,-4.24259 3.98709,-7.70343 3.98709,-9.92467 0,-3.21572 0.31254,-3.52748 5.47124,-5.45759 12.14554,-4.54424 43.52876,-9.04649 43.52876,-6.24467 0,0.63141 0.63109,1.14802 1.40242,1.14802 0.77133,0 8.08383,3.37134 16.25,7.49187 17.5944,8.87787 20.48556,9.46851 46.34758,9.46851 25.6841,0 28.71865,-0.62091 46.37579,-9.4891 8.18169,-4.1092 15.49419,-7.47128 16.25,-7.47128 0.75582,0 1.37421,-0.51661 1.37421,-1.14802 0,-2.80182 31.38322,1.70043 43.52876,6.24467 5.18669,1.94058 5.47124,2.22787 5.47124,5.5238 0,2.4132 1.58231,6.10583 5.17257,12.07123 17.04077,28.31406 31.08108,73.73088 35.80139,115.80832 1.58844,14.15963 1.28815,41.30752 -0.5563,50.29216 -3.18776,15.5281 -8.4411,21.20324 -19.63015,21.20629 -12.22198,0.003 -22.37706,-6.39626 -46.78751,-29.48477 -16.0172,-15.14979 -24.56762,-21.94913 -32.94124,-26.19506 l -5.55876,-2.81862 -48.5,0 -48.5,0 -5.60816,2.75552 c -8.10888,3.98423 -16.47231,10.63477 -32.89184,26.15538 -24.52276,23.18022 -33.34935,28.87264 -45.5,29.34372 -4.41699,0.17125 -8.14529,-0.2464 -10.10374,-1.13184 z M 338.9087,208.68362 c 6.9831,-3.56772 10.35055,-8.5796 10.83066,-16.1196 0.60599,-9.51692 -3.61929,-16.5633 -12.04233,-20.08267 -13.57891,-5.67363 -29.93135,7.10958 -27.2664,21.31498 2.63725,14.05777 16.21198,21.15414 28.47807,14.88729 z"
         id="path3006"
         inkscape:connector-curvature="0" />
      <path
         style="fill:#707070"
         d="m 189.32482,345.5564 c -15.21645,-6.87952 -17.25615,-53.75156 -4.76815,-109.57122 6.16879,-27.57363 18.76886,-60.06204 30.49485,-78.62884 2.63238,-4.16807 3.87704,-7.28496 3.87704,-9.70893 0,-3.40901 0.24686,-3.66245 5.47124,-5.61714 12.14554,-4.54424 43.52876,-9.04649 43.52876,-6.24467 0,0.63141 0.5625,1.13915 1.25,1.12831 0.6875,-0.0108 8,3.36212 16.25,7.49546 17.76112,8.89853 20.63459,9.48463 46.5,9.48463 25.6841,0 28.71865,-0.62091 46.37579,-9.4891 8.18169,-4.1092 15.49419,-7.47128 16.25,-7.47128 0.75582,0 1.37421,-0.51661 1.37421,-1.14802 0,-2.80182 31.38322,1.70043 43.52876,6.24467 5.18669,1.94058 5.47124,2.22787 5.47124,5.5238 0,2.4132 1.58231,6.10583 5.17257,12.07123 10.87976,18.07725 21.18663,44.66311 27.74164,71.55765 6.82776,28.01359 9.06549,45.27992 9.07759,70.04283 0.009,19.05775 -1.58928,29.27043 -5.82414,37.20784 -3.62188,6.78849 -7.4664,8.70146 -16.66766,8.29355 -12.30857,-0.54566 -20.94855,-6.10922 -45.5,-29.29889 -16.2433,-15.34234 -24.90118,-22.23176 -33,-26.25943 l -5.5,-2.73523 -48.5,0 -48.5,0 -5.60816,2.75552 c -8.10888,3.98423 -16.47231,10.63477 -32.89184,26.15538 -24.52276,23.18022 -33.34935,28.87264 -45.5,29.34372 -4.41699,0.17125 -8.14529,-0.2464 -10.10374,-1.13184 z M 338.9087,208.68362 c 6.9831,-3.56772 10.35055,-8.5796 10.83066,-16.1196 0.60599,-9.51692 -3.61929,-16.5633 -12.04233,-20.08267 -14.5646,-6.08548 -30.92535,8.01479 -26.85202,23.142 3.44849,12.80669 16.58978,18.92238 28.06369,13.06027 z"
         id="path3004"
         inkscape:connector-curvature="0" />
      <path
         style="fill:#505050"
         d="m 189.32482,345.5564 c -15.21645,-6.87952 -17.25615,-53.75156 -4.76815,-109.57122 6.16879,-27.57363 18.76886,-60.06204 30.49485,-78.62884 2.63238,-4.16807 3.87704,-7.28496 3.87704,-9.70893 0,-3.40901 0.24686,-3.66245 5.47124,-5.61714 12.14554,-4.54424 43.52876,-9.04649 43.52876,-6.24467 0,0.63141 0.5625,1.13526 1.25,1.11967 0.6875,-0.0156 8,3.36774 16.25,7.51853 17.72724,8.91904 20.43351,9.4702 46.5,9.4702 25.86202,0 28.75318,-0.59064 46.34758,-9.46851 8.16617,-4.12053 15.47867,-7.49187 16.25,-7.49187 0.77133,0 1.40242,-0.51661 1.40242,-1.14802 0,-2.80182 31.38322,1.70043 43.52876,6.24467 5.21215,1.95011 5.47124,2.21465 5.47124,5.58632 0,2.49684 1.53726,6.08371 5.21931,12.17815 10.86723,17.98716 21.12218,44.42099 27.6949,71.38821 6.82776,28.01359 9.06549,45.27992 9.07759,70.04283 0.009,19.05775 -1.58928,29.27043 -5.82414,37.20784 -3.62188,6.78849 -7.4664,8.70146 -16.66766,8.29355 -12.1902,-0.54041 -21.16538,-6.26231 -44.46206,-28.34561 -16.49598,-15.6368 -26.10318,-23.35557 -33.724,-27.09507 l -5.81394,-2.85287 -48.5,0 -48.5,0 -5.60816,2.75552 c -8.10136,3.98053 -16.37032,10.56023 -33.71365,26.82632 -24.79233,23.25242 -32.50285,28.20074 -44.67819,28.67278 -4.41699,0.17125 -8.14529,-0.2464 -10.10374,-1.13184 z M 338.9087,208.68362 c 6.9831,-3.56772 10.35055,-8.5796 10.83066,-16.1196 0.31224,-4.9036 -0.0431,-7.16123 -1.60766,-10.21281 -5.43177,-10.59467 -16.3255,-14.15086 -27.0213,-8.82092 -8.38299,4.17742 -12.57737,13.45361 -10.17108,22.4941 3.31654,12.46031 16.59523,18.47038 27.96938,12.65923 z"
         id="path3002"
         inkscape:connector-curvature="0" />
      <path
         style="fill:#090909"
         d="m 189.32482,345.50425 c -21.29437,-9.26963 -15.32556,-95.5298 10.99563,-158.9068 4.67546,-11.25773 9.80842,-21.44664 14.73107,-29.24111 2.63238,-4.16807 3.87704,-7.28496 3.87704,-9.70893 0,-3.40901 0.24686,-3.66245 5.47124,-5.61714 12.14554,-4.54424 43.52876,-9.04649 43.52876,-6.24467 0,0.63141 0.5625,1.13526 1.25,1.11967 0.6875,-0.0156 8,3.36774 16.25,7.51853 17.72724,8.91904 20.43351,9.4702 46.5,9.4702 25.86202,0 28.75318,-0.59064 46.34758,-9.46851 8.16617,-4.12053 15.47867,-7.49187 16.25,-7.49187 0.77133,0 1.40242,-0.51661 1.40242,-1.14802 0,-2.80182 31.38322,1.70043 43.52876,6.24467 5.18958,1.94166 5.47124,2.22639 5.47124,5.53078 0,2.43878 1.71169,6.3916 5.70656,13.17815 17.1703,29.16923 30.59475,72.82197 35.27176,114.69442 0.5529,4.95 1.00896,16.55647 1.01348,25.79216 0.009,19.05775 -1.58928,29.27043 -5.82414,37.20784 -3.62188,6.78849 -7.4664,8.70146 -16.66766,8.29355 -12.19324,-0.54055 -21.39919,-6.46978 -45.38182,-29.22886 -15.42736,-14.64029 -25.30205,-22.53054 -32.80424,-26.21182 l -5.81394,-2.85287 -48.55222,0 -48.55223,0 -6.79822,3.4506 c -7.26853,3.68931 -17.95623,12.4661 -38.07793,31.26978 -13.65592,12.76142 -22.25592,19.11171 -29.72675,21.9504 -5.64175,2.1437 -14.9496,2.33558 -19.39639,0.39985 z M 339.3335,208.66717 c 2.14771,-1.22845 5.27745,-3.93779 6.95497,-6.02074 4.07227,-5.05649 4.91255,-14.3085 1.84323,-20.29522 -5.43177,-10.59467 -16.3255,-14.15086 -27.0213,-8.82092 -11.09804,5.53039 -14.27837,19.92056 -6.63595,30.02593 5.35896,7.08599 17.16309,9.51289 24.85905,5.11095 z"
         id="path3000"
         inkscape:connector-curvature="0" />
      <path
         style="fill:#000000"
         d="m 188.92856,345.18207 c -12.84771,-6.41815 -16.10273,-43.92354 -7.91928,-91.24845 5.87259,-33.9612 18.83305,-71.17953 32.89156,-94.4541 3.51432,-5.81815 5.02772,-9.38574 5.02772,-11.85207 0,-3.23734 0.3506,-3.65835 4.25,-5.10347 14.00326,-5.18964 44.75,-9.76403 44.75,-6.65775 0,0.51294 1.0125,1.21931 2.25,1.56972 1.2375,0.3504 8.55,3.75789 16.25,7.57218 16.79206,8.31817 19.81611,8.91038 45.5,8.91038 25.80746,0 28.72563,-0.57354 45.5,-8.94258 7.7,-3.84167 15.0125,-7.2531 16.25,-7.58097 1.2375,-0.32786 2.25,-1.01579 2.25,-1.52873 0,-3.1159 30.75966,1.47118 44.81728,6.68344 3.94326,1.46208 4.29504,1.87292 4.06059,4.74235 -0.18431,2.25576 1.07774,5.39737 4.4758,11.1416 17.9121,30.27938 31.41118,73.10901 36.2458,115 2.08462,18.06279 1.51823,48.19231 -1.06211,56.5 -3.96374,12.76168 -8.68268,17 -18.92776,17 -11.27136,0 -20.29437,-5.38847 -40.39012,-24.12062 -20.11811,-18.75301 -31.01768,-27.6546 -38.18146,-31.18252 l -6.49155,-3.19686 -46.38631,-0.28809 c -52.94726,-0.32883 -52.20369,-0.41787 -64.33585,7.70402 -4.02837,2.6968 -14.44915,11.55811 -23.15729,19.69179 -20.18463,18.85311 -26.52024,23.90991 -35.13881,28.04627 -8.21481,3.94258 -16.63486,4.53852 -22.52821,1.59446 z M 341.15015,207.98395 c 6.32605,-4.33468 8.27841,-8.37557 8.27841,-17.13424 0,-7.11751 -0.24246,-8.03514 -3.05797,-11.57327 -4.7281,-5.94161 -10.65124,-8.59548 -17.84662,-7.99621 -11.25589,0.93746 -18.11166,8.65266 -18.07713,20.34326 0.0155,5.23243 0.48156,6.85655 3.01338,10.5 4.30661,6.19749 10.28956,9.03507 18.09976,8.58431 4.39274,-0.25352 7.1122,-1.02592 9.59017,-2.72385 z"
         id="path2998"
         inkscape:connector-curvature="0" />
    </g>
  </g>
</svg>
